<?xml version="1.0" encoding="UTF-8" standalone="no"?><svg xmlns="http://www.w3.org/2000/svg" xmlns:xlink="http://www.w3.org/1999/xlink" contentScriptType="application/ecmascript" contentStyleType="text/css" height="330px" preserveAspectRatio="none" style="width:375px;height:330px;" version="1.1" viewBox="0 0 375 330" width="375px" zoomAndPan="magnify"><defs><filter height="300%" id="f1iexfg2da62s5" width="300%" x="-1" y="-1"><feGaussianBlur result="blurOut" stdDeviation="2.0"/><feColorMatrix in="blurOut" result="blurOut2" type="matrix" values="0 0 0 0 0 0 0 0 0 0 0 0 0 0 0 0 0 0 .4 0"/><feOffset dx="4.0" dy="4.0" in="blurOut2" result="blurOut3"/><feBlend in="SourceGraphic" in2="blurOut3" mode="normal"/></filter></defs><g><!--class Auto--><rect fill="#FEFECE" filter="url(#f1iexfg2da62s5)" height="138.6855" id="Auto" style="stroke: #A80036; stroke-width: 1.5;" width="141" x="102.5" y="8"/><ellipse cx="155.75" cy="24" fill="#A9DCDF" rx="11" ry="11" style="stroke: #A80036; stroke-width: 1.0;"/><path d="M155.8633,19.3481 L154.7095,24.4199 L157.0254,24.4199 Z M154.3691,17.1069 L157.3657,17.1069 L160.7109,29.5 L158.2622,29.5 L157.4985,26.437 L154.2197,26.437 L153.4727,29.5 L151.0239,29.5 Z "/><text fill="#000000" font-family="sans-serif" font-size="12" font-style="italic" lengthAdjust="spacingAndGlyphs" textLength="26" x="176.25" y="28.5352">Auto</text><line style="stroke: #A80036; stroke-width: 1.5;" x1="103.5" x2="242.5" y1="40" y2="40"/><polygon fill="none" points="113.5,46.9775,117.5,50.9775,113.5,54.9775,109.5,50.9775" style="stroke: #B38D22; stroke-width: 1.0;"/><text fill="#000000" font-family="sans-serif" font-size="11" lengthAdjust="spacingAndGlyphs" textLength="53" x="122.5" y="54.6348">gas: Pedal</text><polygon fill="none" points="113.5,59.9326,117.5,63.9326,113.5,67.9326,109.5,63.9326" style="stroke: #B38D22; stroke-width: 1.0;"/><text fill="#000000" font-family="sans-serif" font-size="11" lengthAdjust="spacingAndGlyphs" textLength="74" x="122.5" y="67.5898">bremse: Pedal</text><polygon fill="none" points="113.5,72.8877,117.5,76.8877,113.5,80.8877,109.5,76.8877" style="stroke: #B38D22; stroke-width: 1.0;"/><text fill="#000000" font-family="sans-serif" font-size="11" lengthAdjust="spacingAndGlyphs" textLength="115" x="122.5" y="80.5449">zuendung: Zuendung</text><line style="stroke: #A80036; stroke-width: 1.5;" x1="103.5" x2="242.5" y1="86.8652" y2="86.8652"/><polygon fill="#FFFF44" points="113.5,93.8428,117.5,97.8428,113.5,101.8428,109.5,97.8428" style="stroke: #B38D22; stroke-width: 1.0;"/><text fill="#000000" font-family="sans-serif" font-size="11" lengthAdjust="spacingAndGlyphs" textLength="102" x="122.5" y="101.5">abstract anlassen()</text><polygon fill="#FFFF44" points="113.5,106.7979,117.5,110.7979,113.5,114.7979,109.5,110.7979" style="stroke: #B38D22; stroke-width: 1.0;"/><text fill="#000000" font-family="sans-serif" font-size="11" lengthAdjust="spacingAndGlyphs" textLength="103" x="122.5" y="114.4551">abstract anfahren()</text><polygon fill="#FFFF44" points="113.5,119.7529,117.5,123.7529,113.5,127.7529,109.5,123.7529" style="stroke: #B38D22; stroke-width: 1.0;"/><text fill="#000000" font-family="sans-serif" font-size="11" lengthAdjust="spacingAndGlyphs" textLength="103" x="122.5" y="127.4102">abstract abstellen()</text><ellipse cx="113.5" cy="137.708" fill="#84BE84" rx="3" ry="3" style="stroke: #038048; stroke-width: 1.0;"/><text fill="#000000" font-family="sans-serif" font-size="11" lengthAdjust="spacingAndGlyphs" textLength="79" x="122.5" y="140.3652">fahren(km: int)</text><!--class AutoManuell--><rect fill="#FEFECE" filter="url(#f1iexfg2da62s5)" height="112.7754" id="AutoManuell" style="stroke: #A80036; stroke-width: 1.5;" width="138" x="6" y="207"/><ellipse cx="37.2" cy="223" fill="#ADD1B2" rx="11" ry="11" style="stroke: #A80036; stroke-width: 1.0;"/><path d="M40.1731,228.6431 Q39.5921,228.9419 38.9529,229.0913 Q38.3138,229.2407 37.6082,229.2407 Q35.1014,229.2407 33.7815,227.5889 Q32.4617,225.937 32.4617,222.8159 Q32.4617,219.6865 33.7815,218.0347 Q35.1014,216.3828 37.6082,216.3828 Q38.3138,216.3828 38.9612,216.5322 Q39.6087,216.6816 40.1731,216.9805 L40.1731,219.7031 Q39.5423,219.1221 38.9488,218.8523 Q38.3553,218.5825 37.7244,218.5825 Q36.3797,218.5825 35.6949,219.6492 Q35.0101,220.7158 35.0101,222.8159 Q35.0101,224.9077 35.6949,225.9744 Q36.3797,227.041 37.7244,227.041 Q38.3553,227.041 38.9488,226.7712 Q39.5423,226.5015 40.1731,225.9204 Z "/><text fill="#000000" font-family="sans-serif" font-size="12" lengthAdjust="spacingAndGlyphs" textLength="70" x="54.8" y="227.5352">AutoManuell</text><line style="stroke: #A80036; stroke-width: 1.5;" x1="7" x2="143" y1="239" y2="239"/><polygon fill="none" points="17,245.9775,21,249.9775,17,253.9775,13,249.9775" style="stroke: #B38D22; stroke-width: 1.0;"/><text fill="#000000" font-family="sans-serif" font-size="11" lengthAdjust="spacingAndGlyphs" textLength="85" x="26" y="253.6348">kupplung: Pedal</text><polygon fill="none" points="17,258.9326,21,262.9326,17,266.9326,13,262.9326" style="stroke: #B38D22; stroke-width: 1.0;"/><text fill="#000000" font-family="sans-serif" font-size="11" lengthAdjust="spacingAndGlyphs" textLength="112" x="26" y="266.5898">schaltung: Schaltung</text><line style="stroke: #A80036; stroke-width: 1.5;" x1="7" x2="143" y1="272.9102" y2="272.9102"/><polygon fill="#FFFF44" points="17,279.8877,21,283.8877,17,287.8877,13,283.8877" style="stroke: #B38D22; stroke-width: 1.0;"/><text fill="#000000" font-family="sans-serif" font-size="11" lengthAdjust="spacingAndGlyphs" textLength="55" x="26" y="287.5449">anlassen()</text><polygon fill="#FFFF44" points="17,292.8428,21,296.8428,17,300.8428,13,296.8428" style="stroke: #B38D22; stroke-width: 1.0;"/><text fill="#000000" font-family="sans-serif" font-size="11" lengthAdjust="spacingAndGlyphs" textLength="56" x="26" y="300.5">anfahren()</text><polygon fill="#FFFF44" points="17,305.7979,21,309.7979,17,313.7979,13,309.7979" style="stroke: #B38D22; stroke-width: 1.0;"/><text fill="#000000" font-family="sans-serif" font-size="11" lengthAdjust="spacingAndGlyphs" textLength="56" x="26" y="313.4551">abstellen()</text><!--class AutoAutomatik--><rect fill="#FEFECE" filter="url(#f1iexfg2da62s5)" height="99.8203" id="AutoAutomatik" style="stroke: #A80036; stroke-width: 1.5;" width="185" x="179.5" y="213.5"/><ellipse cx="225.75" cy="229.5" fill="#ADD1B2" rx="11" ry="11" style="stroke: #A80036; stroke-width: 1.0;"/><path d="M228.7231,235.1431 Q228.1421,235.4419 227.5029,235.5913 Q226.8638,235.7407 226.1582,235.7407 Q223.6514,235.7407 222.3315,234.0889 Q221.0117,232.437 221.0117,229.3159 Q221.0117,226.1865 222.3315,224.5347 Q223.6514,222.8828 226.1582,222.8828 Q226.8638,222.8828 227.5112,223.0322 Q228.1587,223.1816 228.7231,223.4805 L228.7231,226.2031 Q228.0923,225.6221 227.4988,225.3523 Q226.9053,225.0825 226.2744,225.0825 Q224.9297,225.0825 224.2449,226.1492 Q223.5601,227.2158 223.5601,229.3159 Q223.5601,231.4077 224.2449,232.4744 Q224.9297,233.541 226.2744,233.541 Q226.9053,233.541 227.4988,233.2712 Q228.0923,233.0015 228.7231,232.4204 Z "/><text fill="#000000" font-family="sans-serif" font-size="12" lengthAdjust="spacingAndGlyphs" textLength="84" x="246.25" y="234.0352">AutoAutomatik</text><line style="stroke: #A80036; stroke-width: 1.5;" x1="180.5" x2="363.5" y1="245.5" y2="245.5"/><polygon fill="none" points="190.5,252.4775,194.5,256.4775,190.5,260.4775,186.5,256.4775" style="stroke: #B38D22; stroke-width: 1.0;"/><text fill="#000000" font-family="sans-serif" font-size="11" lengthAdjust="spacingAndGlyphs" textLength="159" x="199.5" y="260.1348">automatik: AutomatikGetriebe</text><line style="stroke: #A80036; stroke-width: 1.5;" x1="180.5" x2="363.5" y1="266.4551" y2="266.4551"/><polygon fill="#FFFF44" points="190.5,273.4326,194.5,277.4326,190.5,281.4326,186.5,277.4326" style="stroke: #B38D22; stroke-width: 1.0;"/><text fill="#000000" font-family="sans-serif" font-size="11" lengthAdjust="spacingAndGlyphs" textLength="55" x="199.5" y="281.0898">anlassen()</text><polygon fill="#FFFF44" points="190.5,286.3877,194.5,290.3877,190.5,294.3877,186.5,290.3877" style="stroke: #B38D22; stroke-width: 1.0;"/><text fill="#000000" font-family="sans-serif" font-size="11" lengthAdjust="spacingAndGlyphs" textLength="56" x="199.5" y="294.0449">anfahren()</text><polygon fill="#FFFF44" points="190.5,299.3428,194.5,303.3428,190.5,307.3428,186.5,303.3428" style="stroke: #B38D22; stroke-width: 1.0;"/><text fill="#000000" font-family="sans-serif" font-size="11" lengthAdjust="spacingAndGlyphs" textLength="56" x="199.5" y="307">abstellen()</text><!--link Auto to AutoManuell--><path d="M126.9645,164.8735 C119.4584,179.1197 111.8593,193.5426 104.875,206.7984 " fill="none" id="Auto-AutoManuell" style="stroke: #A80036; stroke-width: 1.0;"/><polygon fill="none" points="120.8532,161.4553,136.3691,147.024,133.2392,167.9813,120.8532,161.4553" style="stroke: #A80036; stroke-width: 1.0;"/><!--link Auto to AutoAutomatik--><path d="M219.5291,164.9183 C228.4026,181.5898 237.4039,198.5014 245.3869,213.4997 " fill="none" id="Auto-AutoAutomatik" style="stroke: #A80036; stroke-width: 1.0;"/><polygon fill="none" points="213.2225,167.9679,210.0047,147.024,225.581,161.39,213.2225,167.9679" style="stroke: #A80036; stroke-width: 1.0;"/><!--
@startuml

abstract class Auto {
	# gas: Pedal
	# bremse: Pedal
	# zuendung: Zuendung

	# abstract anlassen()
	# abstract anfahren()
	# abstract abstellen()

	+ fahren(km: int)
}

class AutoManuell extends Auto {
	# kupplung: Pedal
	# schaltung: Schaltung

	# anlassen()
	# anfahren()
	# abstellen()
}

class AutoAutomatik extends Auto {
	# automatik: AutomatikGetriebe

	# anlassen()
	# anfahren()
	# abstellen()
}

@enduml

PlantUML version 1.2017.16(Sun Sep 03 12:53:37 CEST 2017)
(GPL source distribution)
Java Runtime: Java(TM) SE Runtime Environment
JVM: Java HotSpot(TM) 64-Bit Server VM
Java Version: 1.8.0_144-b01
Operating System: Mac OS X
OS Version: 10.13.1
Default Encoding: UTF-8
Language: en
Country: US
--></g></svg>