<?xml version="1.0" encoding="UTF-8" standalone="no"?><svg xmlns="http://www.w3.org/2000/svg" xmlns:xlink="http://www.w3.org/1999/xlink" contentScriptType="application/ecmascript" contentStyleType="text/css" height="343px" preserveAspectRatio="none" style="width:202px;height:343px;" version="1.1" viewBox="0 0 202 343" width="202px" zoomAndPan="magnify"><defs><filter height="300%" id="f1p75uzkn3tdr9" width="300%" x="-1" y="-1"><feGaussianBlur result="blurOut" stdDeviation="2.0"/><feColorMatrix in="blurOut" result="blurOut2" type="matrix" values="0 0 0 0 0 0 0 0 0 0 0 0 0 0 0 0 0 0 .4 0"/><feOffset dx="4.0" dy="4.0" in="blurOut2" result="blurOut3"/><feBlend in="SourceGraphic" in2="blurOut3" mode="normal"/></filter></defs><g><!--class AutoManuell--><rect fill="#FEFECE" filter="url(#f1p75uzkn3tdr9)" height="164.5957" id="AutoManuell" style="stroke: #A80036; stroke-width: 1.5;" width="141" x="28" y="8"/><ellipse cx="60.55" cy="24" fill="#ADD1B2" rx="11" ry="11" style="stroke: #A80036; stroke-width: 1.0;"/><path d="M63.5231,29.6431 Q62.9421,29.9419 62.3029,30.0913 Q61.6638,30.2407 60.9582,30.2407 Q58.4514,30.2407 57.1315,28.5889 Q55.8117,26.937 55.8117,23.8159 Q55.8117,20.6865 57.1315,19.0347 Q58.4514,17.3828 60.9582,17.3828 Q61.6638,17.3828 62.3112,17.5322 Q62.9587,17.6816 63.5231,17.9805 L63.5231,20.7031 Q62.8923,20.1221 62.2988,19.8523 Q61.7053,19.5825 61.0744,19.5825 Q59.7297,19.5825 59.0449,20.6492 Q58.3601,21.7158 58.3601,23.8159 Q58.3601,25.9077 59.0449,26.9744 Q59.7297,28.041 61.0744,28.041 Q61.7053,28.041 62.2988,27.7712 Q62.8923,27.5015 63.5231,26.9204 Z "/><text fill="#000000" font-family="sans-serif" font-size="12" lengthAdjust="spacingAndGlyphs" textLength="70" x="78.45" y="28.5352">AutoManuell</text><line style="stroke: #A80036; stroke-width: 1.5;" x1="29" x2="168" y1="40" y2="40"/><polygon fill="none" points="39,46.9775,43,50.9775,39,54.9775,35,50.9775" style="stroke: #B38D22; stroke-width: 1.0;"/><text fill="#000000" font-family="sans-serif" font-size="11" lengthAdjust="spacingAndGlyphs" textLength="53" x="48" y="54.6348">gas: Pedal</text><polygon fill="none" points="39,59.9326,43,63.9326,39,67.9326,35,63.9326" style="stroke: #B38D22; stroke-width: 1.0;"/><text fill="#000000" font-family="sans-serif" font-size="11" lengthAdjust="spacingAndGlyphs" textLength="74" x="48" y="67.5898">bremse: Pedal</text><polygon fill="none" points="39,72.8877,43,76.8877,39,80.8877,35,76.8877" style="stroke: #B38D22; stroke-width: 1.0;"/><text fill="#000000" font-family="sans-serif" font-size="11" lengthAdjust="spacingAndGlyphs" textLength="85" x="48" y="80.5449">kupplung: Pedal</text><polygon fill="none" points="39,85.8428,43,89.8428,39,93.8428,35,89.8428" style="stroke: #B38D22; stroke-width: 1.0;"/><text fill="#000000" font-family="sans-serif" font-size="11" lengthAdjust="spacingAndGlyphs" textLength="115" x="48" y="93.5">zuendung: Zuendung</text><polygon fill="none" points="39,98.7979,43,102.7979,39,106.7979,35,102.7979" style="stroke: #B38D22; stroke-width: 1.0;"/><text fill="#000000" font-family="sans-serif" font-size="11" lengthAdjust="spacingAndGlyphs" textLength="112" x="48" y="106.4551">schaltung: Schaltung</text><line style="stroke: #A80036; stroke-width: 1.5;" x1="29" x2="168" y1="112.7754" y2="112.7754"/><rect fill="#F24D5C" height="6" style="stroke: #C82930; stroke-width: 1.0;" width="6" x="36" y="121.7529"/><text fill="#000000" font-family="sans-serif" font-size="11" lengthAdjust="spacingAndGlyphs" textLength="55" x="48" y="127.4102">anlassen()</text><rect fill="#F24D5C" height="6" style="stroke: #C82930; stroke-width: 1.0;" width="6" x="36" y="134.708"/><text fill="#000000" font-family="sans-serif" font-size="11" lengthAdjust="spacingAndGlyphs" textLength="56" x="48" y="140.3652">anfahren()</text><rect fill="#F24D5C" height="6" style="stroke: #C82930; stroke-width: 1.0;" width="6" x="36" y="147.6631"/><text fill="#000000" font-family="sans-serif" font-size="11" lengthAdjust="spacingAndGlyphs" textLength="56" x="48" y="153.3203">abstellen()</text><ellipse cx="39" cy="163.6182" fill="#84BE84" rx="3" ry="3" style="stroke: #038048; stroke-width: 1.0;"/><text fill="#000000" font-family="sans-serif" font-size="11" lengthAdjust="spacingAndGlyphs" textLength="79" x="48" y="166.2754">fahren(km: int)</text><!--class AutomatikAuto--><rect fill="#FEFECE" filter="url(#f1p75uzkn3tdr9)" height="99.8203" id="AutomatikAuto" style="stroke: #A80036; stroke-width: 1.5;" width="185" x="6" y="233"/><ellipse cx="52.25" cy="249" fill="#ADD1B2" rx="11" ry="11" style="stroke: #A80036; stroke-width: 1.0;"/><path d="M55.2231,254.6431 Q54.6421,254.9419 54.0029,255.0913 Q53.3638,255.2407 52.6582,255.2407 Q50.1514,255.2407 48.8315,253.5889 Q47.5117,251.937 47.5117,248.8159 Q47.5117,245.6865 48.8315,244.0347 Q50.1514,242.3828 52.6582,242.3828 Q53.3638,242.3828 54.0112,242.5322 Q54.6587,242.6816 55.2231,242.9805 L55.2231,245.7031 Q54.5923,245.1221 53.9988,244.8523 Q53.4053,244.5825 52.7744,244.5825 Q51.4297,244.5825 50.7449,245.6492 Q50.0601,246.7158 50.0601,248.8159 Q50.0601,250.9077 50.7449,251.9744 Q51.4297,253.041 52.7744,253.041 Q53.4053,253.041 53.9988,252.7712 Q54.5923,252.5015 55.2231,251.9204 Z "/><text fill="#000000" font-family="sans-serif" font-size="12" lengthAdjust="spacingAndGlyphs" textLength="84" x="72.75" y="253.5352">AutomatikAuto</text><line style="stroke: #A80036; stroke-width: 1.5;" x1="7" x2="190" y1="265" y2="265"/><polygon fill="none" points="17,271.9775,21,275.9775,17,279.9775,13,275.9775" style="stroke: #B38D22; stroke-width: 1.0;"/><text fill="#000000" font-family="sans-serif" font-size="11" lengthAdjust="spacingAndGlyphs" textLength="159" x="26" y="279.6348">automatik: AutomatikGetriebe</text><line style="stroke: #A80036; stroke-width: 1.5;" x1="7" x2="190" y1="285.9551" y2="285.9551"/><rect fill="#F24D5C" height="6" style="stroke: #C82930; stroke-width: 1.0;" width="6" x="14" y="294.9326"/><text fill="#000000" font-family="sans-serif" font-size="11" lengthAdjust="spacingAndGlyphs" textLength="55" x="26" y="300.5898">anlassen()</text><rect fill="#F24D5C" height="6" style="stroke: #C82930; stroke-width: 1.0;" width="6" x="14" y="307.8877"/><text fill="#000000" font-family="sans-serif" font-size="11" lengthAdjust="spacingAndGlyphs" textLength="56" x="26" y="313.5449">anfahren()</text><rect fill="#F24D5C" height="6" style="stroke: #C82930; stroke-width: 1.0;" width="6" x="14" y="320.8428"/><text fill="#000000" font-family="sans-serif" font-size="11" lengthAdjust="spacingAndGlyphs" textLength="56" x="26" y="326.5">abstellen()</text><!--link AutoManuell to AutomatikAuto--><path d="M98.5,193.349 C98.5,207.0657 98.5,220.6029 98.5,232.8391 " fill="none" id="AutoManuell-AutomatikAuto" style="stroke: #A80036; stroke-width: 1.0;"/><polygon fill="none" points="91.5001,193.2545,98.5,173.2545,105.5001,193.2545,91.5001,193.2545" style="stroke: #A80036; stroke-width: 1.0;"/><!--
@startuml

class AutoManuell {
	# gas: Pedal
	# bremse: Pedal
	# kupplung: Pedal
	# zuendung: Zuendung
	# schaltung: Schaltung
	- anlassen()
	- anfahren()
	- abstellen()
	+ fahren(km: int)
}

class AutomatikAuto extends AutoManuell {
	# automatik: AutomatikGetriebe
	- anlassen()
	- anfahren()
	- abstellen()
}

@enduml

PlantUML version 1.2017.16(Sun Sep 03 12:53:37 CEST 2017)
(GPL source distribution)
Java Runtime: Java(TM) SE Runtime Environment
JVM: Java HotSpot(TM) 64-Bit Server VM
Java Version: 1.8.0_144-b01
Operating System: Mac OS X
OS Version: 10.13.1
Default Encoding: UTF-8
Language: en
Country: US
--></g></svg>