<?xml version="1.0" encoding="UTF-8" standalone="no"?><svg xmlns="http://www.w3.org/2000/svg" xmlns:xlink="http://www.w3.org/1999/xlink" contentScriptType="application/ecmascript" contentStyleType="text/css" height="347px" preserveAspectRatio="none" style="width:386px;height:347px;" version="1.1" viewBox="0 0 386 347" width="386px" zoomAndPan="magnify"><defs><filter height="300%" id="f18dm4pm039bpz" width="300%" x="-1" y="-1"><feGaussianBlur result="blurOut" stdDeviation="2.0"/><feColorMatrix in="blurOut" result="blurOut2" type="matrix" values="0 0 0 0 0 0 0 0 0 0 0 0 0 0 0 0 0 0 .4 0"/><feOffset dx="4.0" dy="4.0" in="blurOut2" result="blurOut3"/><feBlend in="SourceGraphic" in2="blurOut3" mode="normal"/></filter></defs><g><!--class Zuendung--><rect fill="#FEFECE" filter="url(#f18dm4pm039bpz)" height="86.8652" id="Zuendung" style="stroke: #A80036; stroke-width: 1.5;" width="89" x="6" y="250"/><ellipse cx="21" cy="266" fill="#ADD1B2" rx="11" ry="11" style="stroke: #A80036; stroke-width: 1.0;"/><path d="M23.9731,271.6431 Q23.3921,271.9419 22.7529,272.0913 Q22.1138,272.2407 21.4082,272.2407 Q18.9014,272.2407 17.5815,270.5889 Q16.2617,268.937 16.2617,265.8159 Q16.2617,262.6865 17.5815,261.0347 Q18.9014,259.3828 21.4082,259.3828 Q22.1138,259.3828 22.7612,259.5322 Q23.4087,259.6816 23.9731,259.9805 L23.9731,262.7031 Q23.3423,262.1221 22.7488,261.8523 Q22.1553,261.5825 21.5244,261.5825 Q20.1797,261.5825 19.4949,262.6492 Q18.8101,263.7158 18.8101,265.8159 Q18.8101,267.9077 19.4949,268.9744 Q20.1797,270.041 21.5244,270.041 Q22.1553,270.041 22.7488,269.7712 Q23.3423,269.5015 23.9731,268.9204 Z "/><text fill="#000000" font-family="sans-serif" font-size="12" lengthAdjust="spacingAndGlyphs" textLength="57" x="35" y="270.5352">Zuendung</text><line style="stroke: #A80036; stroke-width: 1.5;" x1="7" x2="94" y1="282" y2="282"/><line style="stroke: #A80036; stroke-width: 1.5;" x1="7" x2="94" y1="290" y2="290"/><ellipse cx="17" cy="301.9775" fill="#84BE84" rx="3" ry="3" style="stroke: #038048; stroke-width: 1.0;"/><text fill="#000000" font-family="sans-serif" font-size="11" lengthAdjust="spacingAndGlyphs" textLength="21" x="26" y="304.6348">an()</text><ellipse cx="17" cy="314.9326" fill="#84BE84" rx="3" ry="3" style="stroke: #038048; stroke-width: 1.0;"/><text fill="#000000" font-family="sans-serif" font-size="11" lengthAdjust="spacingAndGlyphs" textLength="33" x="26" y="317.5898">start()</text><ellipse cx="17" cy="327.8877" fill="#84BE84" rx="3" ry="3" style="stroke: #038048; stroke-width: 1.0;"/><text fill="#000000" font-family="sans-serif" font-size="11" lengthAdjust="spacingAndGlyphs" textLength="27" x="26" y="330.5449">aus()</text><!--class Pedal--><rect fill="#FEFECE" filter="url(#f18dm4pm039bpz)" height="73.9102" id="Pedal" style="stroke: #A80036; stroke-width: 1.5;" width="84" x="130.5" y="256.5"/><ellipse cx="154.5" cy="272.5" fill="#ADD1B2" rx="11" ry="11" style="stroke: #A80036; stroke-width: 1.0;"/><path d="M157.4731,278.1431 Q156.8921,278.4419 156.2529,278.5913 Q155.6138,278.7407 154.9082,278.7407 Q152.4014,278.7407 151.0815,277.0889 Q149.7617,275.437 149.7617,272.3159 Q149.7617,269.1865 151.0815,267.5347 Q152.4014,265.8828 154.9082,265.8828 Q155.6138,265.8828 156.2612,266.0322 Q156.9087,266.1816 157.4731,266.4805 L157.4731,269.2031 Q156.8423,268.6221 156.2488,268.3523 Q155.6553,268.0825 155.0244,268.0825 Q153.6797,268.0825 152.9949,269.1492 Q152.3101,270.2158 152.3101,272.3159 Q152.3101,274.4077 152.9949,275.4744 Q153.6797,276.541 155.0244,276.541 Q155.6553,276.541 156.2488,276.2712 Q156.8423,276.0015 157.4731,275.4204 Z "/><text fill="#000000" font-family="sans-serif" font-size="12" lengthAdjust="spacingAndGlyphs" textLength="32" x="170.5" y="277.0352">Pedal</text><line style="stroke: #A80036; stroke-width: 1.5;" x1="131.5" x2="213.5" y1="288.5" y2="288.5"/><line style="stroke: #A80036; stroke-width: 1.5;" x1="131.5" x2="213.5" y1="296.5" y2="296.5"/><ellipse cx="141.5" cy="308.4775" fill="#84BE84" rx="3" ry="3" style="stroke: #038048; stroke-width: 1.0;"/><text fill="#000000" font-family="sans-serif" font-size="11" lengthAdjust="spacingAndGlyphs" textLength="58" x="150.5" y="311.1348">druecken()</text><ellipse cx="141.5" cy="321.4326" fill="#84BE84" rx="3" ry="3" style="stroke: #038048; stroke-width: 1.0;"/><text fill="#000000" font-family="sans-serif" font-size="11" lengthAdjust="spacingAndGlyphs" textLength="58" x="150.5" y="324.0898">loslassen()</text><!--class Schaltung--><rect fill="#FEFECE" filter="url(#f18dm4pm039bpz)" height="60.9551" id="Schaltung" style="stroke: #A80036; stroke-width: 1.5;" width="126" x="249.5" y="263"/><ellipse cx="282.5" cy="279" fill="#ADD1B2" rx="11" ry="11" style="stroke: #A80036; stroke-width: 1.0;"/><path d="M285.4731,284.6431 Q284.8921,284.9419 284.2529,285.0913 Q283.6138,285.2407 282.9082,285.2407 Q280.4014,285.2407 279.0815,283.5889 Q277.7617,281.937 277.7617,278.8159 Q277.7617,275.6865 279.0815,274.0347 Q280.4014,272.3828 282.9082,272.3828 Q283.6138,272.3828 284.2612,272.5322 Q284.9087,272.6816 285.4731,272.9805 L285.4731,275.7031 Q284.8423,275.1221 284.2488,274.8523 Q283.6553,274.5825 283.0244,274.5825 Q281.6797,274.5825 280.9949,275.6492 Q280.3101,276.7158 280.3101,278.8159 Q280.3101,280.9077 280.9949,281.9744 Q281.6797,283.041 283.0244,283.041 Q283.6553,283.041 284.2488,282.7712 Q284.8423,282.5015 285.4731,281.9204 Z "/><text fill="#000000" font-family="sans-serif" font-size="12" lengthAdjust="spacingAndGlyphs" textLength="54" x="300.5" y="283.5352">Schaltung</text><line style="stroke: #A80036; stroke-width: 1.5;" x1="250.5" x2="374.5" y1="295" y2="295"/><line style="stroke: #A80036; stroke-width: 1.5;" x1="250.5" x2="374.5" y1="303" y2="303"/><ellipse cx="260.5" cy="314.9775" fill="#84BE84" rx="3" ry="3" style="stroke: #038048; stroke-width: 1.0;"/><text fill="#000000" font-family="sans-serif" font-size="11" lengthAdjust="spacingAndGlyphs" textLength="100" x="269.5" y="317.6348">einlegen(gang: int)</text><!--class AutoManuell--><rect fill="#FEFECE" filter="url(#f18dm4pm039bpz)" height="164.5957" id="AutoManuell" style="stroke: #A80036; stroke-width: 1.5;" width="141" x="102" y="8"/><ellipse cx="134.55" cy="24" fill="#ADD1B2" rx="11" ry="11" style="stroke: #A80036; stroke-width: 1.0;"/><path d="M137.5231,29.6431 Q136.9421,29.9419 136.3029,30.0913 Q135.6638,30.2407 134.9582,30.2407 Q132.4514,30.2407 131.1315,28.5889 Q129.8117,26.937 129.8117,23.8159 Q129.8117,20.6865 131.1315,19.0347 Q132.4514,17.3828 134.9582,17.3828 Q135.6638,17.3828 136.3112,17.5322 Q136.9587,17.6816 137.5231,17.9805 L137.5231,20.7031 Q136.8923,20.1221 136.2988,19.8523 Q135.7053,19.5825 135.0744,19.5825 Q133.7297,19.5825 133.0449,20.6492 Q132.3601,21.7158 132.3601,23.8159 Q132.3601,25.9077 133.0449,26.9744 Q133.7297,28.041 135.0744,28.041 Q135.7053,28.041 136.2988,27.7712 Q136.8923,27.5015 137.5231,26.9204 Z "/><text fill="#000000" font-family="sans-serif" font-size="12" lengthAdjust="spacingAndGlyphs" textLength="70" x="152.45" y="28.5352">AutoManuell</text><line style="stroke: #A80036; stroke-width: 1.5;" x1="103" x2="242" y1="40" y2="40"/><rect fill="none" height="6" style="stroke: #C82930; stroke-width: 1.0;" width="6" x="110" y="48.9775"/><text fill="#000000" font-family="sans-serif" font-size="11" lengthAdjust="spacingAndGlyphs" textLength="53" x="122" y="54.6348">gas: Pedal</text><rect fill="none" height="6" style="stroke: #C82930; stroke-width: 1.0;" width="6" x="110" y="61.9326"/><text fill="#000000" font-family="sans-serif" font-size="11" lengthAdjust="spacingAndGlyphs" textLength="74" x="122" y="67.5898">bremse: Pedal</text><rect fill="none" height="6" style="stroke: #C82930; stroke-width: 1.0;" width="6" x="110" y="74.8877"/><text fill="#000000" font-family="sans-serif" font-size="11" lengthAdjust="spacingAndGlyphs" textLength="85" x="122" y="80.5449">kupplung: Pedal</text><rect fill="none" height="6" style="stroke: #C82930; stroke-width: 1.0;" width="6" x="110" y="87.8428"/><text fill="#000000" font-family="sans-serif" font-size="11" lengthAdjust="spacingAndGlyphs" textLength="115" x="122" y="93.5">zuendung: Zuendung</text><rect fill="none" height="6" style="stroke: #C82930; stroke-width: 1.0;" width="6" x="110" y="100.7979"/><text fill="#000000" font-family="sans-serif" font-size="11" lengthAdjust="spacingAndGlyphs" textLength="112" x="122" y="106.4551">schaltung: Schaltung</text><line style="stroke: #A80036; stroke-width: 1.5;" x1="103" x2="242" y1="112.7754" y2="112.7754"/><rect fill="#F24D5C" height="6" style="stroke: #C82930; stroke-width: 1.0;" width="6" x="110" y="121.7529"/><text fill="#000000" font-family="sans-serif" font-size="11" lengthAdjust="spacingAndGlyphs" textLength="55" x="122" y="127.4102">anlassen()</text><rect fill="#F24D5C" height="6" style="stroke: #C82930; stroke-width: 1.0;" width="6" x="110" y="134.708"/><text fill="#000000" font-family="sans-serif" font-size="11" lengthAdjust="spacingAndGlyphs" textLength="56" x="122" y="140.3652">anfahren()</text><rect fill="#F24D5C" height="6" style="stroke: #C82930; stroke-width: 1.0;" width="6" x="110" y="147.6631"/><text fill="#000000" font-family="sans-serif" font-size="11" lengthAdjust="spacingAndGlyphs" textLength="56" x="122" y="153.3203">abstellen()</text><ellipse cx="113" cy="163.6182" fill="#84BE84" rx="3" ry="3" style="stroke: #038048; stroke-width: 1.0;"/><text fill="#000000" font-family="sans-serif" font-size="11" lengthAdjust="spacingAndGlyphs" textLength="79" x="122" y="166.2754">fahren(km: int)</text><!--link AutoManuell to Zuendung--><path d="M116.1481,184.2659 C102.3616,207.2057 88.2567,230.6753 76.6721,249.9514 " fill="none" id="AutoManuell-Zuendung" style="stroke: #A80036; stroke-width: 1.0;"/><polygon fill="#A80036" points="122.8779,173.0679,116.3587,176.1502,116.6966,183.3534,123.2157,180.2711,122.8779,173.0679" style="stroke: #A80036; stroke-width: 1.0;"/><!--link AutoManuell to Pedal--><path d="M172.5,186.3749 C172.5,211.2005 172.5,236.4763 172.5,256.2371 " fill="none" id="AutoManuell-Pedal" style="stroke: #A80036; stroke-width: 1.0;"/><polygon fill="#A80036" points="172.5,173.0679,168.5,179.0679,172.5,185.0679,176.5,179.0679,172.5,173.0679" style="stroke: #A80036; stroke-width: 1.0;"/><text fill="#000000" font-family="sans-serif" font-size="13" lengthAdjust="spacingAndGlyphs" textLength="8" x="173.5" y="216.5684">3</text><!--link AutoManuell to Schaltung--><path d="M236.9073,183.8906 C256.4909,212.2868 276.6621,241.535 291.237,262.6687 " fill="none" id="AutoManuell-Schaltung" style="stroke: #A80036; stroke-width: 1.0;"/><polygon fill="#A80036" points="229.4434,173.0679,229.5569,180.2781,236.2562,182.9465,236.1426,175.7363,229.4434,173.0679" style="stroke: #A80036; stroke-width: 1.0;"/><!--
@startuml

class Zuendung {
	+ an()
	+ start()
	+ aus()
}

class Pedal {
	+ druecken()
	+ loslassen()
}

class Schaltung {
	+ einlegen(gang: int)
}

class AutoManuell {
	- gas: Pedal
	- bremse: Pedal
	- kupplung: Pedal
	- zuendung: Zuendung
	- schaltung: Schaltung
	- anlassen()
	- anfahren()
	- abstellen()
	+ fahren(km: int)
}

AutoManuell *- - Zuendung
AutoManuell *- - Pedal : 3
AutoManuell *- - Schaltung

@enduml

PlantUML version 1.2017.16(Sun Sep 03 12:53:37 CEST 2017)
(GPL source distribution)
Java Runtime: Java(TM) SE Runtime Environment
JVM: Java HotSpot(TM) 64-Bit Server VM
Java Version: 1.8.0_144-b01
Operating System: Mac OS X
OS Version: 10.13.1
Default Encoding: UTF-8
Language: en
Country: US
--></g></svg>