<?xml version="1.0" encoding="UTF-8" standalone="no"?><svg xmlns="http://www.w3.org/2000/svg" xmlns:xlink="http://www.w3.org/1999/xlink" contentScriptType="application/ecmascript" contentStyleType="text/css" height="403px" preserveAspectRatio="none" style="width:649px;height:403px;" version="1.1" viewBox="0 0 649 403" width="649px" zoomAndPan="magnify"><defs><filter height="300%" id="fyejpnfijl9cp" width="300%" x="-1" y="-1"><feGaussianBlur result="blurOut" stdDeviation="2.0"/><feColorMatrix in="blurOut" result="blurOut2" type="matrix" values="0 0 0 0 0 0 0 0 0 0 0 0 0 0 0 0 0 0 .4 0"/><feOffset dx="4.0" dy="4.0" in="blurOut2" result="blurOut3"/><feBlend in="SourceGraphic" in2="blurOut3" mode="normal"/></filter></defs><g><rect fill="#FFFFFF" filter="url(#fyejpnfijl9cp)" height="126.5869" style="stroke: #A80036; stroke-width: 1.0;" width="10" x="161.5" y="69.4883"/><rect fill="#FFFFFF" filter="url(#fyejpnfijl9cp)" height="41.6553" style="stroke: #A80036; stroke-width: 1.0;" width="10" x="161.5" y="223.041"/><rect fill="#FFFFFF" filter="url(#fyejpnfijl9cp)" height="62.3105" style="stroke: #A80036; stroke-width: 1.0;" width="10" x="161.5" y="291.6621"/><rect fill="#FFFFFF" filter="url(#fyejpnfijl9cp)" height="26.9658" style="stroke: #A80036; stroke-width: 1.0;" width="10" x="361.5" y="196.0752"/><rect fill="#FFFFFF" filter="url(#fyejpnfijl9cp)" height="26.9658" style="stroke: #A80036; stroke-width: 1.0;" width="10" x="472.5" y="264.6963"/><line style="stroke: #A80036; stroke-width: 1.0; stroke-dasharray: 5.0,5.0;" x1="26" x2="26" y1="38.4883" y2="362.9727"/><line style="stroke: #A80036; stroke-width: 1.0; stroke-dasharray: 5.0,5.0;" x1="166.5" x2="166.5" y1="38.4883" y2="362.9727"/><line style="stroke: #A80036; stroke-width: 1.0; stroke-dasharray: 5.0,5.0;" x1="366" x2="366" y1="38.4883" y2="362.9727"/><line style="stroke: #A80036; stroke-width: 1.0; stroke-dasharray: 5.0,5.0;" x1="477" x2="477" y1="38.4883" y2="362.9727"/><rect fill="#FEFECE" filter="url(#fyejpnfijl9cp)" height="30.4883" style="stroke: #A80036; stroke-width: 1.5;" width="33" x="8" y="3"/><text fill="#000000" font-family="sans-serif" font-size="14" lengthAdjust="spacingAndGlyphs" textLength="19" x="15" y="23.5352">OS</text><rect fill="#FEFECE" filter="url(#fyejpnfijl9cp)" height="30.4883" style="stroke: #A80036; stroke-width: 1.5;" width="33" x="8" y="361.9727"/><text fill="#000000" font-family="sans-serif" font-size="14" lengthAdjust="spacingAndGlyphs" textLength="19" x="15" y="382.5078">OS</text><rect fill="#FEFECE" filter="url(#fyejpnfijl9cp)" height="30.4883" style="stroke: #A80036; stroke-width: 1.5;" width="48" x="140.5" y="3"/><text fill="#000000" font-family="sans-serif" font-size="14" lengthAdjust="spacingAndGlyphs" textLength="34" x="147.5" y="23.5352">main</text><rect fill="#FEFECE" filter="url(#fyejpnfijl9cp)" height="30.4883" style="stroke: #A80036; stroke-width: 1.5;" width="48" x="140.5" y="361.9727"/><text fill="#000000" font-family="sans-serif" font-size="14" lengthAdjust="spacingAndGlyphs" textLength="34" x="147.5" y="382.5078">main</text><rect fill="#FEFECE" filter="url(#fyejpnfijl9cp)" height="30.4883" style="stroke: #A80036; stroke-width: 1.5;" width="97" x="316" y="3"/><text fill="#000000" font-family="sans-serif" font-size="14" lengthAdjust="spacingAndGlyphs" textLength="83" x="323" y="23.5352">ez1.zaehlen</text><rect fill="#FEFECE" filter="url(#fyejpnfijl9cp)" height="30.4883" style="stroke: #A80036; stroke-width: 1.5;" width="97" x="316" y="361.9727"/><text fill="#000000" font-family="sans-serif" font-size="14" lengthAdjust="spacingAndGlyphs" textLength="83" x="323" y="382.5078">ez1.zaehlen</text><rect fill="#FEFECE" filter="url(#fyejpnfijl9cp)" height="30.4883" style="stroke: #A80036; stroke-width: 1.5;" width="97" x="427" y="3"/><text fill="#000000" font-family="sans-serif" font-size="14" lengthAdjust="spacingAndGlyphs" textLength="83" x="434" y="23.5352">ez2.zaehlen</text><rect fill="#FEFECE" filter="url(#fyejpnfijl9cp)" height="30.4883" style="stroke: #A80036; stroke-width: 1.5;" width="97" x="427" y="361.9727"/><text fill="#000000" font-family="sans-serif" font-size="14" lengthAdjust="spacingAndGlyphs" textLength="83" x="434" y="382.5078">ez2.zaehlen</text><rect fill="#FFFFFF" filter="url(#fyejpnfijl9cp)" height="126.5869" style="stroke: #A80036; stroke-width: 1.0;" width="10" x="161.5" y="69.4883"/><rect fill="#FFFFFF" filter="url(#fyejpnfijl9cp)" height="41.6553" style="stroke: #A80036; stroke-width: 1.0;" width="10" x="161.5" y="223.041"/><rect fill="#FFFFFF" filter="url(#fyejpnfijl9cp)" height="62.3105" style="stroke: #A80036; stroke-width: 1.0;" width="10" x="161.5" y="291.6621"/><rect fill="#FFFFFF" filter="url(#fyejpnfijl9cp)" height="26.9658" style="stroke: #A80036; stroke-width: 1.0;" width="10" x="361.5" y="196.0752"/><rect fill="#FFFFFF" filter="url(#fyejpnfijl9cp)" height="26.9658" style="stroke: #A80036; stroke-width: 1.0;" width="10" x="472.5" y="264.6963"/><polygon fill="#A80036" points="149.5,65.4883,159.5,69.4883,149.5,73.4883,153.5,69.4883" style="stroke: #A80036; stroke-width: 1.0;"/><line style="stroke: #A80036; stroke-width: 1.0; stroke-dasharray: 2.0,2.0;" x1="26.5" x2="155.5" y1="69.4883" y2="69.4883"/><text fill="#000000" font-family="sans-serif" font-size="13" lengthAdjust="spacingAndGlyphs" textLength="116" x="33.5" y="65.0566">java Erbsenzaehler</text><line style="stroke: #A80036; stroke-width: 1.0; stroke-dasharray: 2.0,2.0;" x1="171.5" x2="213.5" y1="99.1094" y2="99.1094"/><line style="stroke: #A80036; stroke-width: 1.0; stroke-dasharray: 2.0,2.0;" x1="213.5" x2="213.5" y1="99.1094" y2="112.1094"/><line style="stroke: #A80036; stroke-width: 1.0; stroke-dasharray: 2.0,2.0;" x1="172.5" x2="213.5" y1="112.1094" y2="112.1094"/><polygon fill="#A80036" points="182.5,108.1094,172.5,112.1094,182.5,116.1094,178.5,112.1094" style="stroke: #A80036; stroke-width: 1.0;"/><text fill="#000000" font-family="sans-serif" font-size="13" lengthAdjust="spacingAndGlyphs" textLength="176" x="178.5" y="94.3672">ez1 = new Erbsenzaehler(...)</text><line style="stroke: #A80036; stroke-width: 1.0; stroke-dasharray: 2.0,2.0;" x1="171.5" x2="213.5" y1="141.4199" y2="141.4199"/><line style="stroke: #A80036; stroke-width: 1.0; stroke-dasharray: 2.0,2.0;" x1="213.5" x2="213.5" y1="141.4199" y2="154.4199"/><line style="stroke: #A80036; stroke-width: 1.0; stroke-dasharray: 2.0,2.0;" x1="172.5" x2="213.5" y1="154.4199" y2="154.4199"/><polygon fill="#A80036" points="182.5,150.4199,172.5,154.4199,182.5,158.4199,178.5,154.4199" style="stroke: #A80036; stroke-width: 1.0;"/><text fill="#000000" font-family="sans-serif" font-size="13" lengthAdjust="spacingAndGlyphs" textLength="176" x="178.5" y="136.6777">ez2 = new Erbsenzaehler(...)</text><polygon fill="#A80036" points="349.5,192.0752,359.5,196.0752,349.5,200.0752,353.5,196.0752" style="stroke: #A80036; stroke-width: 1.0;"/><line style="stroke: #A80036; stroke-width: 1.0; stroke-dasharray: 2.0,2.0;" x1="166.5" x2="355.5" y1="196.0752" y2="196.0752"/><text fill="#000000" font-family="sans-serif" font-size="13" lengthAdjust="spacingAndGlyphs" textLength="82" x="173.5" y="191.6436">ez1.zaehlen()</text><polygon fill="#FBFB77" filter="url(#fyejpnfijl9cp)" points="376,167.4199,376,207.4199,526,207.4199,526,177.4199,516,167.4199,376,167.4199" style="stroke: #A80036; stroke-width: 1.0;"/><line style="stroke: #A80036; stroke-width: 1.0;" x1="516" x2="516" y1="167.4199" y2="177.4199"/><line style="stroke: #A80036; stroke-width: 1.0;" x1="526" x2="516" y1="177.4199" y2="177.4199"/><text fill="#000000" font-family="sans-serif" font-size="13" lengthAdjust="spacingAndGlyphs" textLength="129" x="382" y="184.9883">Bürokrat 1 beginnt...</text><text fill="#000000" font-family="sans-serif" font-size="13" lengthAdjust="spacingAndGlyphs" textLength="127" x="382" y="200.2988">Bürokrat 1 ist fertig!</text><polygon fill="#A80036" points="182.5,219.041,172.5,223.041,182.5,227.041,178.5,223.041" style="stroke: #A80036; stroke-width: 1.0;"/><line style="stroke: #A80036; stroke-width: 1.0; stroke-dasharray: 2.0,2.0;" x1="176.5" x2="365.5" y1="223.041" y2="223.041"/><polygon fill="#A80036" points="460.5,260.6963,470.5,264.6963,460.5,268.6963,464.5,264.6963" style="stroke: #A80036; stroke-width: 1.0;"/><line style="stroke: #A80036; stroke-width: 1.0; stroke-dasharray: 2.0,2.0;" x1="166.5" x2="466.5" y1="264.6963" y2="264.6963"/><text fill="#000000" font-family="sans-serif" font-size="13" lengthAdjust="spacingAndGlyphs" textLength="82" x="173.5" y="260.2646">ez2.zaehlen()</text><polygon fill="#FBFB77" filter="url(#fyejpnfijl9cp)" points="487,236.041,487,276.041,637,276.041,637,246.041,627,236.041,487,236.041" style="stroke: #A80036; stroke-width: 1.0;"/><line style="stroke: #A80036; stroke-width: 1.0;" x1="627" x2="627" y1="236.041" y2="246.041"/><line style="stroke: #A80036; stroke-width: 1.0;" x1="637" x2="627" y1="246.041" y2="246.041"/><text fill="#000000" font-family="sans-serif" font-size="13" lengthAdjust="spacingAndGlyphs" textLength="129" x="493" y="253.6094">Bürokrat 2 beginnt...</text><text fill="#000000" font-family="sans-serif" font-size="13" lengthAdjust="spacingAndGlyphs" textLength="127" x="493" y="268.9199">Bürokrat 2 ist fertig!</text><polygon fill="#A80036" points="182.5,287.6621,172.5,291.6621,182.5,295.6621,178.5,291.6621" style="stroke: #A80036; stroke-width: 1.0;"/><line style="stroke: #A80036; stroke-width: 1.0; stroke-dasharray: 2.0,2.0;" x1="176.5" x2="476.5" y1="291.6621" y2="291.6621"/><line style="stroke: #A80036; stroke-width: 1.0; stroke-dasharray: 2.0,2.0;" x1="171.5" x2="213.5" y1="311.8174" y2="311.8174"/><line style="stroke: #A80036; stroke-width: 1.0; stroke-dasharray: 2.0,2.0;" x1="213.5" x2="213.5" y1="311.8174" y2="324.8174"/><line style="stroke: #A80036; stroke-width: 1.0; stroke-dasharray: 2.0,2.0;" x1="172.5" x2="213.5" y1="324.8174" y2="324.8174"/><polygon fill="#A80036" points="182.5,320.8174,172.5,324.8174,182.5,328.8174,178.5,324.8174" style="stroke: #A80036; stroke-width: 1.0;"/><polygon fill="#FBFB77" filter="url(#fyejpnfijl9cp)" points="221,304.6621,221,329.6621,333,329.6621,333,314.6621,323,304.6621,221,304.6621" style="stroke: #A80036; stroke-width: 1.0;"/><line style="stroke: #A80036; stroke-width: 1.0;" x1="323" x2="323" y1="304.6621" y2="314.6621"/><line style="stroke: #A80036; stroke-width: 1.0;" x1="333" x2="323" y1="314.6621" y2="314.6621"/><text fill="#000000" font-family="sans-serif" font-size="13" lengthAdjust="spacingAndGlyphs" textLength="91" x="227" y="322.2305">"main() fertig!"</text><polygon fill="#A80036" points="37.5,340.9727,27.5,344.9727,37.5,348.9727,33.5,344.9727" style="stroke: #A80036; stroke-width: 1.0;"/><line style="stroke: #A80036; stroke-width: 1.0; stroke-dasharray: 2.0,2.0;" x1="31.5" x2="160.5" y1="344.9727" y2="344.9727"/><!--
@startuml
'modeled as process

OS - -> main : java Erbsenzaehler
activate main

main - -> main : ez1 = new Erbsenzaehler(...)
main - -> main : ez2 = new Erbsenzaehler(...)

main - -> ez1.zaehlen : ez1.zaehlen()
deactivate main
activate ez1.zaehlen

note right
	Bürokrat 1 beginnt...
	Bürokrat 1 ist fertig!
endnote

ez1.zaehlen - -> main
deactivate ez1.zaehlen
activate main

main - -> ez2.zaehlen : ez2.zaehlen()
deactivate main
activate ez2.zaehlen

note right
	Bürokrat 2 beginnt...
	Bürokrat 2 ist fertig!
endnote

ez2.zaehlen - -> main
deactivate ez2.zaehlen
activate main

main - -> main
note right : "main() fertig!"

main - -> OS

@enduml

PlantUML version 1.2017.16(Sun Sep 03 12:53:37 CEST 2017)
(GPL source distribution)
Java Runtime: Java(TM) SE Runtime Environment
JVM: Java HotSpot(TM) 64-Bit Server VM
Java Version: 1.8.0_144-b01
Operating System: Mac OS X
OS Version: 10.13.2
Default Encoding: UTF-8
Language: en
Country: US
--></g></svg>