<?xml version="1.0" encoding="UTF-8" standalone="no"?><svg xmlns="http://www.w3.org/2000/svg" xmlns:xlink="http://www.w3.org/1999/xlink" contentScriptType="application/ecmascript" contentStyleType="text/css" height="536px" preserveAspectRatio="none" style="width:667px;height:536px;" version="1.1" viewBox="0 0 667 536" width="667px" zoomAndPan="magnify"><defs><filter height="300%" id="f13jo8bx83zy49" width="300%" x="-1" y="-1"><feGaussianBlur result="blurOut" stdDeviation="2.0"/><feColorMatrix in="blurOut" result="blurOut2" type="matrix" values="0 0 0 0 0 0 0 0 0 0 0 0 0 0 0 0 0 0 .4 0"/><feOffset dx="4.0" dy="4.0" in="blurOut2" result="blurOut3"/><feBlend in="SourceGraphic" in2="blurOut3" mode="normal"/></filter></defs><g><rect fill="#FFFFFF" filter="url(#f13jo8bx83zy49)" height="217.708" style="stroke: #A80036; stroke-width: 1.0;" width="10" x="161.5" y="69.4883"/><rect fill="#FFFFFF" filter="url(#f13jo8bx83zy49)" height="146.9316" style="stroke: #A80036; stroke-width: 1.0;" width="10" x="361.5" y="188.4199"/><rect fill="#FFFFFF" filter="url(#f13jo8bx83zy49)" height="175.2422" style="stroke: #A80036; stroke-width: 1.0;" width="10" x="474.5" y="241.7305"/><line style="stroke: #A80036; stroke-width: 1.0; stroke-dasharray: 5.0,5.0;" x1="26" x2="26" y1="38.4883" y2="495.5938"/><line style="stroke: #A80036; stroke-width: 1.0; stroke-dasharray: 5.0,5.0;" x1="166.5" x2="166.5" y1="38.4883" y2="495.5938"/><line style="stroke: #A80036; stroke-width: 1.0; stroke-dasharray: 5.0,5.0;" x1="366" x2="366" y1="38.4883" y2="495.5938"/><line style="stroke: #A80036; stroke-width: 1.0; stroke-dasharray: 5.0,5.0;" x1="479" x2="479" y1="38.4883" y2="495.5938"/><rect fill="#FEFECE" filter="url(#f13jo8bx83zy49)" height="30.4883" style="stroke: #A80036; stroke-width: 1.5;" width="33" x="8" y="3"/><text fill="#000000" font-family="sans-serif" font-size="14" lengthAdjust="spacingAndGlyphs" textLength="19" x="15" y="23.5352">OS</text><rect fill="#FEFECE" filter="url(#f13jo8bx83zy49)" height="30.4883" style="stroke: #A80036; stroke-width: 1.5;" width="33" x="8" y="494.5938"/><text fill="#000000" font-family="sans-serif" font-size="14" lengthAdjust="spacingAndGlyphs" textLength="19" x="15" y="515.1289">OS</text><rect fill="#FEFECE" filter="url(#f13jo8bx83zy49)" height="30.4883" style="stroke: #A80036; stroke-width: 1.5;" width="48" x="140.5" y="3"/><text fill="#000000" font-family="sans-serif" font-size="14" lengthAdjust="spacingAndGlyphs" textLength="34" x="147.5" y="23.5352">main</text><rect fill="#FEFECE" filter="url(#f13jo8bx83zy49)" height="30.4883" style="stroke: #A80036; stroke-width: 1.5;" width="48" x="140.5" y="494.5938"/><text fill="#000000" font-family="sans-serif" font-size="14" lengthAdjust="spacingAndGlyphs" textLength="34" x="147.5" y="515.1289">main</text><rect fill="#FEFECE" filter="url(#f13jo8bx83zy49)" height="30.4883" style="stroke: #A80036; stroke-width: 1.5;" width="39" x="345" y="3"/><text fill="#000000" font-family="sans-serif" font-size="14" lengthAdjust="spacingAndGlyphs" textLength="25" x="352" y="23.5352">ez1</text><rect fill="#FEFECE" filter="url(#f13jo8bx83zy49)" height="30.4883" style="stroke: #A80036; stroke-width: 1.5;" width="39" x="345" y="494.5938"/><text fill="#000000" font-family="sans-serif" font-size="14" lengthAdjust="spacingAndGlyphs" textLength="25" x="352" y="515.1289">ez1</text><rect fill="#FEFECE" filter="url(#f13jo8bx83zy49)" height="30.4883" style="stroke: #A80036; stroke-width: 1.5;" width="39" x="458" y="3"/><text fill="#000000" font-family="sans-serif" font-size="14" lengthAdjust="spacingAndGlyphs" textLength="25" x="465" y="23.5352">ez2</text><rect fill="#FEFECE" filter="url(#f13jo8bx83zy49)" height="30.4883" style="stroke: #A80036; stroke-width: 1.5;" width="39" x="458" y="494.5938"/><text fill="#000000" font-family="sans-serif" font-size="14" lengthAdjust="spacingAndGlyphs" textLength="25" x="465" y="515.1289">ez2</text><rect fill="#FFFFFF" filter="url(#f13jo8bx83zy49)" height="217.708" style="stroke: #A80036; stroke-width: 1.0;" width="10" x="161.5" y="69.4883"/><rect fill="#FFFFFF" filter="url(#f13jo8bx83zy49)" height="146.9316" style="stroke: #A80036; stroke-width: 1.0;" width="10" x="361.5" y="188.4199"/><rect fill="#FFFFFF" filter="url(#f13jo8bx83zy49)" height="175.2422" style="stroke: #A80036; stroke-width: 1.0;" width="10" x="474.5" y="241.7305"/><polygon fill="#A80036" points="149.5,65.4883,159.5,69.4883,149.5,73.4883,153.5,69.4883" style="stroke: #A80036; stroke-width: 1.0;"/><line style="stroke: #A80036; stroke-width: 1.0; stroke-dasharray: 2.0,2.0;" x1="26.5" x2="155.5" y1="69.4883" y2="69.4883"/><text fill="#000000" font-family="sans-serif" font-size="13" lengthAdjust="spacingAndGlyphs" textLength="116" x="33.5" y="65.0566">java Erbsenzaehler</text><line style="stroke: #A80036; stroke-width: 1.0; stroke-dasharray: 2.0,2.0;" x1="171.5" x2="213.5" y1="99.1094" y2="99.1094"/><line style="stroke: #A80036; stroke-width: 1.0; stroke-dasharray: 2.0,2.0;" x1="213.5" x2="213.5" y1="99.1094" y2="112.1094"/><line style="stroke: #A80036; stroke-width: 1.0; stroke-dasharray: 2.0,2.0;" x1="172.5" x2="213.5" y1="112.1094" y2="112.1094"/><polygon fill="#A80036" points="182.5,108.1094,172.5,112.1094,182.5,116.1094,178.5,112.1094" style="stroke: #A80036; stroke-width: 1.0;"/><text fill="#000000" font-family="sans-serif" font-size="13" lengthAdjust="spacingAndGlyphs" textLength="176" x="178.5" y="94.3672">ez1 = new Erbsenzaehler(...)</text><line style="stroke: #A80036; stroke-width: 1.0; stroke-dasharray: 2.0,2.0;" x1="171.5" x2="213.5" y1="141.4199" y2="141.4199"/><line style="stroke: #A80036; stroke-width: 1.0; stroke-dasharray: 2.0,2.0;" x1="213.5" x2="213.5" y1="141.4199" y2="154.4199"/><line style="stroke: #A80036; stroke-width: 1.0; stroke-dasharray: 2.0,2.0;" x1="172.5" x2="213.5" y1="154.4199" y2="154.4199"/><polygon fill="#A80036" points="182.5,150.4199,172.5,154.4199,182.5,158.4199,178.5,154.4199" style="stroke: #A80036; stroke-width: 1.0;"/><text fill="#000000" font-family="sans-serif" font-size="13" lengthAdjust="spacingAndGlyphs" textLength="176" x="178.5" y="136.6777">ez2 = new Erbsenzaehler(...)</text><polygon fill="#A80036" points="349.5,184.4199,359.5,188.4199,349.5,192.4199,353.5,188.4199" style="stroke: #A80036; stroke-width: 1.0;"/><line style="stroke: #A80036; stroke-width: 1.0; stroke-dasharray: 2.0,2.0;" x1="171.5" x2="355.5" y1="188.4199" y2="188.4199"/><text fill="#000000" font-family="sans-serif" font-size="13" lengthAdjust="spacingAndGlyphs" textLength="143" x="178.5" y="183.9883">new Thread(ez1).start()</text><polygon fill="#FBFB77" filter="url(#f13jo8bx83zy49)" points="376,167.4199,376,192.4199,542,192.4199,542,177.4199,532,167.4199,376,167.4199" style="stroke: #A80036; stroke-width: 1.0;"/><line style="stroke: #A80036; stroke-width: 1.0;" x1="532" x2="532" y1="167.4199" y2="177.4199"/><line style="stroke: #A80036; stroke-width: 1.0;" x1="542" x2="532" y1="177.4199" y2="177.4199"/><text fill="#000000" font-family="sans-serif" font-size="13" lengthAdjust="spacingAndGlyphs" textLength="145" x="382" y="184.9883">Bürokrat 1 is starting...</text><polygon fill="#A80036" points="182.5,203.7305,172.5,207.7305,182.5,211.7305,178.5,207.7305" style="stroke: #A80036; stroke-width: 1.0;"/><line style="stroke: #A80036; stroke-width: 1.0; stroke-dasharray: 2.0,2.0;" x1="176.5" x2="360.5" y1="207.7305" y2="207.7305"/><polygon fill="#A80036" points="462.5,237.7305,472.5,241.7305,462.5,245.7305,466.5,241.7305" style="stroke: #A80036; stroke-width: 1.0;"/><line style="stroke: #A80036; stroke-width: 1.0; stroke-dasharray: 2.0,2.0;" x1="171.5" x2="468.5" y1="241.7305" y2="241.7305"/><text fill="#000000" font-family="sans-serif" font-size="13" lengthAdjust="spacingAndGlyphs" textLength="143" x="178.5" y="237.2988">new Thread(ez2).start()</text><polygon fill="#FBFB77" filter="url(#f13jo8bx83zy49)" points="489,220.7305,489,245.7305,655,245.7305,655,230.7305,645,220.7305,489,220.7305" style="stroke: #A80036; stroke-width: 1.0;"/><line style="stroke: #A80036; stroke-width: 1.0;" x1="645" x2="645" y1="220.7305" y2="230.7305"/><line style="stroke: #A80036; stroke-width: 1.0;" x1="655" x2="645" y1="230.7305" y2="230.7305"/><text fill="#000000" font-family="sans-serif" font-size="13" lengthAdjust="spacingAndGlyphs" textLength="145" x="495" y="238.2988">Bürokrat 2 is starting...</text><polygon fill="#A80036" points="182.5,257.041,172.5,261.041,182.5,265.041,178.5,261.041" style="stroke: #A80036; stroke-width: 1.0;"/><line style="stroke: #A80036; stroke-width: 1.0; stroke-dasharray: 2.0,2.0;" x1="176.5" x2="473.5" y1="261.041" y2="261.041"/><line style="stroke: #A80036; stroke-width: 1.0; stroke-dasharray: 2.0,2.0;" x1="171.5" x2="213.5" y1="286.1963" y2="286.1963"/><line style="stroke: #A80036; stroke-width: 1.0; stroke-dasharray: 2.0,2.0;" x1="213.5" x2="213.5" y1="286.1963" y2="299.1963"/><line style="stroke: #A80036; stroke-width: 1.0; stroke-dasharray: 2.0,2.0;" x1="166.5" x2="213.5" y1="299.1963" y2="299.1963"/><polygon fill="#A80036" points="176.5,295.1963,166.5,299.1963,176.5,303.1963,172.5,299.1963" style="stroke: #A80036; stroke-width: 1.0;"/><polygon fill="#FBFB77" filter="url(#f13jo8bx83zy49)" points="40,274.041,40,299.041,152,299.041,152,284.041,142,274.041,40,274.041" style="stroke: #A80036; stroke-width: 1.0;"/><line style="stroke: #A80036; stroke-width: 1.0;" x1="142" x2="142" y1="274.041" y2="284.041"/><line style="stroke: #A80036; stroke-width: 1.0;" x1="152" x2="142" y1="284.041" y2="284.041"/><text fill="#000000" font-family="sans-serif" font-size="13" lengthAdjust="spacingAndGlyphs" textLength="91" x="46" y="291.6094">"main() fertig!"</text><line style="stroke: #A80036; stroke-width: 1.0; stroke-dasharray: 2.0,2.0;" x1="371.5" x2="413.5" y1="334.6621" y2="334.6621"/><line style="stroke: #A80036; stroke-width: 1.0; stroke-dasharray: 2.0,2.0;" x1="413.5" x2="413.5" y1="334.6621" y2="347.6621"/><line style="stroke: #A80036; stroke-width: 1.0; stroke-dasharray: 2.0,2.0;" x1="366.5" x2="413.5" y1="347.6621" y2="347.6621"/><polygon fill="#A80036" points="376.5,343.6621,366.5,347.6621,376.5,351.6621,372.5,347.6621" style="stroke: #A80036; stroke-width: 1.0;"/><text fill="#000000" font-family="sans-serif" font-size="13" lengthAdjust="spacingAndGlyphs" textLength="89" x="378.5" y="329.9199">Arrays.sort(...)</text><polygon fill="#FBFB77" filter="url(#f13jo8bx83zy49)" points="371,355.6621,371,380.6621,521,380.6621,521,365.6621,511,355.6621,371,355.6621" style="stroke: #A80036; stroke-width: 1.0;"/><line style="stroke: #A80036; stroke-width: 1.0;" x1="511" x2="511" y1="355.6621" y2="365.6621"/><line style="stroke: #A80036; stroke-width: 1.0;" x1="521" x2="511" y1="365.6621" y2="365.6621"/><text fill="#000000" font-family="sans-serif" font-size="13" lengthAdjust="spacingAndGlyphs" textLength="129" x="377" y="373.2305">"Bürokrat 1 is done!"</text><line style="stroke: #A80036; stroke-width: 1.0; stroke-dasharray: 2.0,2.0;" x1="484.5" x2="526.5" y1="416.2832" y2="416.2832"/><line style="stroke: #A80036; stroke-width: 1.0; stroke-dasharray: 2.0,2.0;" x1="526.5" x2="526.5" y1="416.2832" y2="429.2832"/><line style="stroke: #A80036; stroke-width: 1.0; stroke-dasharray: 2.0,2.0;" x1="479.5" x2="526.5" y1="429.2832" y2="429.2832"/><polygon fill="#A80036" points="489.5,425.2832,479.5,429.2832,489.5,433.2832,485.5,429.2832" style="stroke: #A80036; stroke-width: 1.0;"/><text fill="#000000" font-family="sans-serif" font-size="13" lengthAdjust="spacingAndGlyphs" textLength="89" x="491.5" y="411.541">Arrays.sort(...)</text><polygon fill="#FBFB77" filter="url(#f13jo8bx83zy49)" points="484,437.2832,484,462.2832,634,462.2832,634,447.2832,624,437.2832,484,437.2832" style="stroke: #A80036; stroke-width: 1.0;"/><line style="stroke: #A80036; stroke-width: 1.0;" x1="624" x2="624" y1="437.2832" y2="447.2832"/><line style="stroke: #A80036; stroke-width: 1.0;" x1="634" x2="624" y1="447.2832" y2="447.2832"/><text fill="#000000" font-family="sans-serif" font-size="13" lengthAdjust="spacingAndGlyphs" textLength="129" x="490" y="454.8516">"Bürokrat 2 is done!"</text><polygon fill="#A80036" points="37.5,473.5938,27.5,477.5938,37.5,481.5938,33.5,477.5938" style="stroke: #A80036; stroke-width: 1.0;"/><line style="stroke: #A80036; stroke-width: 1.0; stroke-dasharray: 2.0,2.0;" x1="31.5" x2="165.5" y1="477.5938" y2="477.5938"/><!--
@startuml
'modeled with threads

OS - -> main : java Erbsenzaehler
activate main

main - -> main : ez1 = new Erbsenzaehler(...)
main - -> main : ez2 = new Erbsenzaehler(...)

main - -> ez1 : new Thread(ez1).start()
activate ez1
note right : Bürokrat 1 is starting...
ez1 - -> main

main - -> ez2 : new Thread(ez2).start()
activate ez2
note right : Bürokrat 2 is starting...
ez2 - -> main

main - -> main
note left : "main() fertig!"
deactivate main


ez1 - -> ez1 : Arrays.sort(...)

note right of ez1: "Bürokrat 1 is done!"

deactivate ez1

ez2 - -> ez2 : Arrays.sort(...)

note right of ez2: "Bürokrat 2 is done!"

deactivate ez2


main - -> OS

@enduml

PlantUML version 1.2017.16(Sun Sep 03 12:53:37 CEST 2017)
(GPL source distribution)
Java Runtime: Java(TM) SE Runtime Environment
JVM: Java HotSpot(TM) 64-Bit Server VM
Java Version: 1.8.0_144-b01
Operating System: Mac OS X
OS Version: 10.13.2
Default Encoding: UTF-8
Language: en
Country: US
--></g></svg>