<?xml version="1.0" encoding="UTF-8" standalone="no"?><svg xmlns="http://www.w3.org/2000/svg" xmlns:xlink="http://www.w3.org/1999/xlink" contentScriptType="application/ecmascript" contentStyleType="text/css" height="144px" preserveAspectRatio="none" style="width:483px;height:144px;" version="1.1" viewBox="0 0 483 144" width="483px" zoomAndPan="magnify"><defs><filter height="300%" id="f948kkinvyukk" width="300%" x="-1" y="-1"><feGaussianBlur result="blurOut" stdDeviation="2.0"/><feColorMatrix in="blurOut" result="blurOut2" type="matrix" values="0 0 0 0 0 0 0 0 0 0 0 0 0 0 0 0 0 0 .4 0"/><feOffset dx="4.0" dy="4.0" in="blurOut2" result="blurOut3"/><feBlend in="SourceGraphic" in2="blurOut3" mode="normal"/></filter></defs><g><!--class MeineKlasse--><rect fill="#FEFECE" filter="url(#f948kkinvyukk)" height="125.7305" id="MeineKlasse" style="stroke: #A80036; stroke-width: 1.5;" width="262" x="6" y="8"/><ellipse cx="97.25" cy="24" fill="#ADD1B2" rx="11" ry="11" style="stroke: #A80036; stroke-width: 1.0;"/><path d="M100.2231,29.6431 Q99.6421,29.9419 99.0029,30.0913 Q98.3638,30.2407 97.6582,30.2407 Q95.1514,30.2407 93.8315,28.5889 Q92.5117,26.937 92.5117,23.8159 Q92.5117,20.6865 93.8315,19.0347 Q95.1514,17.3828 97.6582,17.3828 Q98.3638,17.3828 99.0112,17.5322 Q99.6587,17.6816 100.2231,17.9805 L100.2231,20.7031 Q99.5923,20.1221 98.9988,19.8523 Q98.4053,19.5825 97.7744,19.5825 Q96.4297,19.5825 95.7449,20.6492 Q95.0601,21.7158 95.0601,23.8159 Q95.0601,25.9077 95.7449,26.9744 Q96.4297,28.041 97.7744,28.041 Q98.4053,28.041 98.9988,27.7712 Q99.5923,27.5015 100.2231,26.9204 Z "/><text fill="#000000" font-family="sans-serif" font-size="12" lengthAdjust="spacingAndGlyphs" textLength="71" x="117.75" y="28.5352">MeineKlasse</text><line style="stroke: #A80036; stroke-width: 1.5;" x1="7" x2="267" y1="40" y2="40"/><rect fill="none" height="6" style="stroke: #C82930; stroke-width: 1.0;" width="6" x="14" y="48.9775"/><text fill="#000000" font-family="sans-serif" font-size="11" lengthAdjust="spacingAndGlyphs" textLength="100" x="26" y="54.6348">privateVariable: int</text><polygon fill="none" points="17,59.9326,21,63.9326,17,67.9326,13,63.9326" style="stroke: #B38D22; stroke-width: 1.0;"/><text fill="#000000" font-family="sans-serif" font-size="11" lengthAdjust="spacingAndGlyphs" textLength="138" x="26" y="67.5898">geschuetzteVariable: float</text><ellipse cx="17" cy="77.8877" fill="none" rx="3" ry="3" style="stroke: #038048; stroke-width: 1.0;"/><text fill="#000000" font-family="sans-serif" font-size="11" lengthAdjust="spacingAndGlyphs" textLength="149" x="26" y="80.5449">oeffentlicheVariable: double</text><line style="stroke: #A80036; stroke-width: 1.5;" x1="7" x2="267" y1="86.8652" y2="86.8652"/><rect fill="#F24D5C" height="6" style="stroke: #C82930; stroke-width: 1.0;" width="6" x="14" y="95.8428"/><text fill="#000000" font-family="sans-serif" font-size="11" lengthAdjust="spacingAndGlyphs" textLength="111" x="26" y="101.5">privateMethode(): int</text><polygon fill="#FFFF44" points="17,106.7979,21,110.7979,17,114.7979,13,110.7979" style="stroke: #B38D22; stroke-width: 1.0;"/><text fill="#000000" font-family="sans-serif" font-size="11" lengthAdjust="spacingAndGlyphs" textLength="162" x="26" y="114.4551">geschuetzteMethode(): double</text><ellipse cx="17" cy="124.7529" fill="#84BE84" rx="3" ry="3" style="stroke: #038048; stroke-width: 1.0;"/><text fill="#000000" font-family="sans-serif" font-size="11" lengthAdjust="spacingAndGlyphs" textLength="236" x="26" y="127.4102">oeffentlicheMethode(argument: String): void</text><!--class MeinInterface--><rect fill="#FEFECE" filter="url(#f948kkinvyukk)" height="73.9102" id="MeinInterface" style="stroke: #A80036; stroke-width: 1.5;" width="169" x="303.5" y="34"/><ellipse cx="345.5" cy="50" fill="#B4A7E5" rx="11" ry="11" style="stroke: #A80036; stroke-width: 1.0;"/><path d="M341.4277,45.7651 L341.4277,43.6069 L348.8071,43.6069 L348.8071,45.7651 L346.3418,45.7651 L346.3418,53.8418 L348.8071,53.8418 L348.8071,56 L341.4277,56 L341.4277,53.8418 L343.8931,53.8418 L343.8931,45.7651 Z "/><text fill="#000000" font-family="sans-serif" font-size="12" font-style="italic" lengthAdjust="spacingAndGlyphs" textLength="77" x="365.5" y="54.5352">MeinInterface</text><line style="stroke: #A80036; stroke-width: 1.5;" x1="304.5" x2="471.5" y1="66" y2="66"/><line style="stroke: #A80036; stroke-width: 1.5;" x1="304.5" x2="471.5" y1="74" y2="74"/><ellipse cx="314.5" cy="85.9775" fill="#84BE84" rx="3" ry="3" style="stroke: #038048; stroke-width: 1.0;"/><text fill="#000000" font-family="sans-serif" font-size="11" lengthAdjust="spacingAndGlyphs" textLength="143" x="323.5" y="88.6348">methode1(arg: int): double</text><ellipse cx="314.5" cy="98.9326" fill="#84BE84" rx="3" ry="3" style="stroke: #038048; stroke-width: 1.0;"/><text fill="#000000" font-family="sans-serif" font-size="11" lengthAdjust="spacingAndGlyphs" textLength="131" x="323.5" y="101.5898">default methode2(): void</text><!--
@startuml

class MeineKlasse {
	- privateVariable: int
	# geschuetzteVariable: float
	+ oeffentlicheVariable: double
	
	- privateMethode(): int
	# geschuetzteMethode(): double
	+ oeffentlicheMethode(argument: String): void
}

interface MeinInterface {
	+ methode1(arg: int): double
	+ default methode2(): void
}

@enduml

PlantUML version 1.2017.16(Sun Sep 03 12:53:37 CEST 2017)
(GPL source distribution)
Java Runtime: Java(TM) SE Runtime Environment
JVM: Java HotSpot(TM) 64-Bit Server VM
Java Version: 1.8.0_144-b01
Operating System: Mac OS X
OS Version: 10.13.1
Default Encoding: UTF-8
Language: en
Country: US
--></g></svg>