<?xml version="1.0" encoding="UTF-8" standalone="no"?><svg xmlns="http://www.w3.org/2000/svg" xmlns:xlink="http://www.w3.org/1999/xlink" contentScriptType="application/ecmascript" contentStyleType="text/css" height="317px" preserveAspectRatio="none" style="width:291px;height:317px;" version="1.1" viewBox="0 0 291 317" width="291px" zoomAndPan="magnify"><defs><filter height="300%" id="f8jrywc4ojkmi" width="300%" x="-1" y="-1"><feGaussianBlur result="blurOut" stdDeviation="2.0"/><feColorMatrix in="blurOut" result="blurOut2" type="matrix" values="0 0 0 0 0 0 0 0 0 0 0 0 0 0 0 0 0 0 .4 0"/><feOffset dx="4.0" dy="4.0" in="blurOut2" result="blurOut3"/><feBlend in="SourceGraphic" in2="blurOut3" mode="normal"/></filter></defs><g><!--class List--><rect fill="#FEFECE" filter="url(#f8jrywc4ojkmi)" height="112.7754" id="List" style="stroke: #A80036; stroke-width: 1.5;" width="113" x="6" y="8"/><ellipse cx="43.5" cy="24" fill="#B4A7E5" rx="11" ry="11" style="stroke: #A80036; stroke-width: 1.0;"/><path d="M39.4277,19.7651 L39.4277,17.6069 L46.8071,17.6069 L46.8071,19.7651 L44.3418,19.7651 L44.3418,27.8418 L46.8071,27.8418 L46.8071,30 L39.4277,30 L39.4277,27.8418 L41.8931,27.8418 L41.8931,19.7651 Z "/><text fill="#000000" font-family="sans-serif" font-size="12" font-style="italic" lengthAdjust="spacingAndGlyphs" textLength="19" x="62.5" y="28.5352">List</text><rect fill="#FFFFFF" height="16.1328" style="stroke: #000000; stroke-width: 1.0; stroke-dasharray: 2.0,2.0;" width="10" x="112" y="5"/><text fill="#000000" font-family="sans-serif" font-size="12" font-style="italic" lengthAdjust="spacingAndGlyphs" textLength="8" x="113" y="17.6016">T</text><line style="stroke: #A80036; stroke-width: 1.5;" x1="7" x2="118" y1="40" y2="40"/><line style="stroke: #A80036; stroke-width: 1.5;" x1="7" x2="118" y1="48" y2="48"/><ellipse cx="17" cy="59.9775" fill="#84BE84" rx="3" ry="3" style="stroke: #038048; stroke-width: 1.0;"/><text fill="#000000" font-family="sans-serif" font-size="11" lengthAdjust="spacingAndGlyphs" textLength="47" x="26" y="62.6348">add(v: T)</text><ellipse cx="17" cy="72.9326" fill="#84BE84" rx="3" ry="3" style="stroke: #038048; stroke-width: 1.0;"/><text fill="#000000" font-family="sans-serif" font-size="11" lengthAdjust="spacingAndGlyphs" textLength="61" x="26" y="75.5898">get(i: int): T</text><ellipse cx="17" cy="85.8877" fill="#84BE84" rx="3" ry="3" style="stroke: #038048; stroke-width: 1.0;"/><text fill="#000000" font-family="sans-serif" font-size="11" lengthAdjust="spacingAndGlyphs" textLength="84" x="26" y="88.5449">remove(i: int): T</text><ellipse cx="17" cy="98.8428" fill="#84BE84" rx="3" ry="3" style="stroke: #038048; stroke-width: 1.0;"/><text fill="#000000" font-family="sans-serif" font-size="11" lengthAdjust="spacingAndGlyphs" textLength="87" x="26" y="101.5">insert(i: int, v: T)</text><ellipse cx="17" cy="111.7979" fill="#84BE84" rx="3" ry="3" style="stroke: #038048; stroke-width: 1.0;"/><text fill="#000000" font-family="sans-serif" font-size="11" lengthAdjust="spacingAndGlyphs" textLength="49" x="26" y="114.4551">size(): int</text><!--class LinkedList--><rect fill="#FEFECE" filter="url(#f8jrywc4ojkmi)" height="125.7305" id="LinkedList" style="stroke: #A80036; stroke-width: 1.5;" width="113" x="6" y="181"/><ellipse cx="26.4" cy="197" fill="#ADD1B2" rx="11" ry="11" style="stroke: #A80036; stroke-width: 1.0;"/><path d="M29.3731,202.6431 Q28.7921,202.9419 28.1529,203.0913 Q27.5138,203.2407 26.8082,203.2407 Q24.3014,203.2407 22.9815,201.5889 Q21.6617,199.937 21.6617,196.8159 Q21.6617,193.6865 22.9815,192.0347 Q24.3014,190.3828 26.8082,190.3828 Q27.5138,190.3828 28.1612,190.5322 Q28.8087,190.6816 29.3731,190.9805 L29.3731,193.7031 Q28.7423,193.1221 28.1488,192.8523 Q27.5553,192.5825 26.9244,192.5825 Q25.5797,192.5825 24.8949,193.6492 Q24.2101,194.7158 24.2101,196.8159 Q24.2101,198.9077 24.8949,199.9744 Q25.5797,201.041 26.9244,201.041 Q27.5553,201.041 28.1488,200.7712 Q28.7423,200.5015 29.3731,199.9204 Z "/><text fill="#000000" font-family="sans-serif" font-size="12" lengthAdjust="spacingAndGlyphs" textLength="57" x="41.6" y="201.5352">LinkedList</text><rect fill="#FFFFFF" height="16.1328" style="stroke: #000000; stroke-width: 1.0; stroke-dasharray: 2.0,2.0;" width="10" x="112" y="178"/><text fill="#000000" font-family="sans-serif" font-size="12" font-style="italic" lengthAdjust="spacingAndGlyphs" textLength="8" x="113" y="190.6016">T</text><line style="stroke: #A80036; stroke-width: 1.5;" x1="7" x2="118" y1="213" y2="213"/><rect fill="none" height="6" style="stroke: #C82930; stroke-width: 1.0;" width="6" x="14" y="221.9775"/><text fill="#000000" font-family="sans-serif" font-size="11" lengthAdjust="spacingAndGlyphs" textLength="70" x="26" y="227.6348">first: Element</text><line style="stroke: #A80036; stroke-width: 1.5;" x1="7" x2="118" y1="233.9551" y2="233.9551"/><ellipse cx="17" cy="245.9326" fill="#84BE84" rx="3" ry="3" style="stroke: #038048; stroke-width: 1.0;"/><text fill="#000000" font-family="sans-serif" font-size="11" lengthAdjust="spacingAndGlyphs" textLength="47" x="26" y="248.5898">add(v: T)</text><ellipse cx="17" cy="258.8877" fill="#84BE84" rx="3" ry="3" style="stroke: #038048; stroke-width: 1.0;"/><text fill="#000000" font-family="sans-serif" font-size="11" lengthAdjust="spacingAndGlyphs" textLength="61" x="26" y="261.5449">get(i: int): T</text><ellipse cx="17" cy="271.8428" fill="#84BE84" rx="3" ry="3" style="stroke: #038048; stroke-width: 1.0;"/><text fill="#000000" font-family="sans-serif" font-size="11" lengthAdjust="spacingAndGlyphs" textLength="84" x="26" y="274.5">remove(i: int): T</text><ellipse cx="17" cy="284.7979" fill="#84BE84" rx="3" ry="3" style="stroke: #038048; stroke-width: 1.0;"/><text fill="#000000" font-family="sans-serif" font-size="11" lengthAdjust="spacingAndGlyphs" textLength="87" x="26" y="287.4551">insert(i: int, v: T)</text><ellipse cx="17" cy="297.7529" fill="#84BE84" rx="3" ry="3" style="stroke: #038048; stroke-width: 1.0;"/><text fill="#000000" font-family="sans-serif" font-size="11" lengthAdjust="spacingAndGlyphs" textLength="49" x="26" y="300.4102">size(): int</text><!--class Element--><rect fill="#FEFECE" filter="url(#f8jrywc4ojkmi)" height="86.8652" id="Element" style="stroke: #A80036; stroke-width: 1.5;" width="90" x="154.5" y="200.5"/><ellipse cx="169.5" cy="216.5" fill="#ADD1B2" rx="11" ry="11" style="stroke: #A80036; stroke-width: 1.0;"/><path d="M172.4731,222.1431 Q171.8921,222.4419 171.2529,222.5913 Q170.6138,222.7407 169.9082,222.7407 Q167.4014,222.7407 166.0815,221.0889 Q164.7617,219.437 164.7617,216.3159 Q164.7617,213.1865 166.0815,211.5347 Q167.4014,209.8828 169.9082,209.8828 Q170.6138,209.8828 171.2612,210.0322 Q171.9087,210.1816 172.4731,210.4805 L172.4731,213.2031 Q171.8423,212.6221 171.2488,212.3523 Q170.6553,212.0825 170.0244,212.0825 Q168.6797,212.0825 167.9949,213.1492 Q167.3101,214.2158 167.3101,216.3159 Q167.3101,218.4077 167.9949,219.4744 Q168.6797,220.541 170.0244,220.541 Q170.6553,220.541 171.2488,220.2712 Q171.8423,220.0015 172.4731,219.4204 Z "/><text fill="#000000" font-family="sans-serif" font-size="12" lengthAdjust="spacingAndGlyphs" textLength="46" x="183.5" y="221.0352">Element</text><rect fill="#FFFFFF" height="16.1328" style="stroke: #000000; stroke-width: 1.0; stroke-dasharray: 2.0,2.0;" width="10" x="237.5" y="197.5"/><text fill="#000000" font-family="sans-serif" font-size="12" font-style="italic" lengthAdjust="spacingAndGlyphs" textLength="8" x="238.5" y="210.1016">T</text><line style="stroke: #A80036; stroke-width: 1.5;" x1="155.5" x2="243.5" y1="232.5" y2="232.5"/><text fill="#000000" font-family="sans-serif" font-size="11" lengthAdjust="spacingAndGlyphs" textLength="72" x="160.5" y="247.1348">next: Element</text><text fill="#000000" font-family="sans-serif" font-size="11" lengthAdjust="spacingAndGlyphs" textLength="41" x="160.5" y="260.0898">value: T</text><line style="stroke: #A80036; stroke-width: 1.5;" x1="155.5" x2="243.5" y1="266.4102" y2="266.4102"/><text fill="#000000" font-family="sans-serif" font-size="11" lengthAdjust="spacingAndGlyphs" textLength="69" x="160.5" y="281.0449">Element(v: T)</text><!--link List to LinkedList--><path d="M62.5,141.4216 C62.5,154.5299 62.5,168.0109 62.5,180.715 " fill="none" id="List-LinkedList" style="stroke: #A80036; stroke-width: 1.0; stroke-dasharray: 7.0,7.0;"/><polygon fill="none" points="55.5001,141.295,62.5,121.2949,69.5001,141.2949,55.5001,141.295" style="stroke: #A80036; stroke-width: 1.0;"/><!--link LinkedList to Element--><path d="M134.317,291.1392 C140.9934,290.6932 147.6698,288.9006 154.3462,285.7615 " fill="none" id="LinkedList-Element" style="stroke: #A80036; stroke-width: 1.0;"/><ellipse cx="127.1977" cy="290.5331" fill="#FFFFFF" rx="8" ry="8" style="stroke: #A80036; stroke-width: 1.0;"/><line style="stroke: #A80036; stroke-width: 1.0;" x1="135.1689" x2="119.2266" y1="291.2119" y2="289.8542"/><line style="stroke: #A80036; stroke-width: 1.0;" x1="126.5189" x2="127.8766" y1="298.5042" y2="282.5619"/><!--link LinkedList to Element--><path d="M132.3964,196.7696 C139.713,196.9754 147.0296,198.7984 154.3462,202.2385 " fill="none" id="LinkedList-Element" style="stroke: #A80036; stroke-width: 1.0;"/><polygon fill="#A80036" points="119.2266,198.1458,125.6098,201.5005,131.1616,196.8986,124.7784,193.5439,119.2266,198.1458" style="stroke: #A80036; stroke-width: 1.0;"/><!--link Element to Element--><path d="M258.1035,211.7026 C270.5278,214.9822 279.5,225.748 279.5,244 C279.5,268.3359 263.5495,279.3632 244.7328,277.0817 " fill="none" id="Element-Element" style="stroke: #A80036; stroke-width: 1.0;"/><polygon fill="#A80036" points="244.7328,210.9183,250.4883,215.2628,256.7122,211.621,250.9567,207.2765,244.7328,210.9183" style="stroke: #A80036; stroke-width: 1.0;"/><!--
@startuml
interface List<T>{
	+ add(v: T)
	+ get(i: int): T
	+ remove(i: int): T
	+ insert(i: int, v: T)
	+ size(): int
}

class LinkedList<T> implements List {
	+ add(v: T)
	+ get(i: int): T
	+ remove(i: int): T
	+ insert(i: int, v: T)
	+ size(): int
	- first: Element
}

class Element<T> {
	Element(v: T)
	next: Element
	value: T 
}

LinkedList +-right- Element
LinkedList *-right- Element
Element *- - Element

@enduml

PlantUML version 1.2017.16(Sun Sep 03 12:53:37 CEST 2017)
(GPL source distribution)
Java Runtime: Java(TM) SE Runtime Environment
JVM: Java HotSpot(TM) 64-Bit Server VM
Java Version: 1.8.0_144-b01
Operating System: Mac OS X
OS Version: 10.13.1
Default Encoding: UTF-8
Language: en
Country: US
--></g></svg>