<?xml version="1.0" encoding="UTF-8" standalone="no"?><svg xmlns="http://www.w3.org/2000/svg" xmlns:xlink="http://www.w3.org/1999/xlink" contentScriptType="application/ecmascript" contentStyleType="text/css" height="143px" preserveAspectRatio="none" style="width:809px;height:143px;" version="1.1" viewBox="0 0 809 143" width="809px" zoomAndPan="magnify"><defs><filter height="300%" id="f1ixxmmn68d63h" width="300%" x="-1" y="-1"><feGaussianBlur result="blurOut" stdDeviation="2.0"/><feColorMatrix in="blurOut" result="blurOut2" type="matrix" values="0 0 0 0 0 0 0 0 0 0 0 0 0 0 0 0 0 0 .4 0"/><feOffset dx="4.0" dy="4.0" in="blurOut2" result="blurOut3"/><feBlend in="SourceGraphic" in2="blurOut3" mode="normal"/></filter></defs><g><!--entity user--><ellipse cx="21" cy="59" fill="#FEFECE" filter="url(#f1ixxmmn68d63h)" rx="8" ry="8" style="stroke: #A80036; stroke-width: 2.0;"/><path d="M21,67 L21,94 M8,75 L34,75 M21,94 L8,109 M21,94 L34,109 " fill="#FEFECE" filter="url(#f1ixxmmn68d63h)" style="stroke: #A80036; stroke-width: 2.0;"/><text fill="#000000" font-family="sans-serif" font-size="14" lengthAdjust="spacingAndGlyphs" textLength="30" x="6" y="129.5352">user</text><rect fill="#FEFECE" filter="url(#f1ixxmmn68d63h)" height="37.9102" style="stroke: #A80036; stroke-width: 1.5;" width="92" x="71" y="71.5"/><text fill="#000000" font-family="sans-serif" font-size="12" lengthAdjust="spacingAndGlyphs" textLength="24" x="105" y="85.1016">list1</text><line style="stroke: #A80036; stroke-width: 1.5;" x1="72" x2="162" y1="89.6328" y2="89.6328"/><text fill="#000000" font-family="sans-serif" font-size="10" lengthAdjust="spacingAndGlyphs" textLength="80" x="77" y="103.3008">first = element1</text><rect fill="#FEFECE" filter="url(#f1ixxmmn68d63h)" height="49.6875" style="stroke: #A80036; stroke-width: 1.5;" width="94" x="198" y="65.5"/><text fill="#000000" font-family="sans-serif" font-size="12" lengthAdjust="spacingAndGlyphs" textLength="54" x="218" y="79.1016">element1</text><line style="stroke: #A80036; stroke-width: 1.5;" x1="199" x2="291" y1="83.6328" y2="83.6328"/><text fill="#000000" font-family="sans-serif" font-size="10" lengthAdjust="spacingAndGlyphs" textLength="82" x="204" y="97.3008">next = element2</text><text fill="#000000" font-family="sans-serif" font-size="10" lengthAdjust="spacingAndGlyphs" textLength="72" x="204" y="109.0781">value = "Mary"</text><rect fill="#FEFECE" filter="url(#f1ixxmmn68d63h)" height="49.6875" style="stroke: #A80036; stroke-width: 1.5;" width="94" x="327" y="65.5"/><text fill="#000000" font-family="sans-serif" font-size="12" lengthAdjust="spacingAndGlyphs" textLength="54" x="347" y="79.1016">element2</text><line style="stroke: #A80036; stroke-width: 1.5;" x1="328" x2="420" y1="83.6328" y2="83.6328"/><text fill="#000000" font-family="sans-serif" font-size="10" lengthAdjust="spacingAndGlyphs" textLength="82" x="333" y="97.3008">next = element3</text><text fill="#000000" font-family="sans-serif" font-size="10" lengthAdjust="spacingAndGlyphs" textLength="66" x="333" y="109.0781">value = "had"</text><rect fill="#FEFECE" filter="url(#f1ixxmmn68d63h)" height="49.6875" style="stroke: #A80036; stroke-width: 1.5;" width="94" x="704" y="65.5"/><text fill="#000000" font-family="sans-serif" font-size="12" lengthAdjust="spacingAndGlyphs" textLength="54" x="724" y="79.1016">element3</text><line style="stroke: #A80036; stroke-width: 1.5;" x1="705" x2="797" y1="83.6328" y2="83.6328"/><text fill="#000000" font-family="sans-serif" font-size="10" lengthAdjust="spacingAndGlyphs" textLength="82" x="710" y="97.3008">next = element5</text><text fill="#000000" font-family="sans-serif" font-size="10" lengthAdjust="spacingAndGlyphs" textLength="54" x="710" y="109.0781">value = "a"</text><rect fill="#FEFECE" filter="url(#f1ixxmmn68d63h)" height="49.6875" style="stroke: #A80036; stroke-width: 1.5;" width="94" x="456" y="65.5"/><text fill="#000000" font-family="sans-serif" font-size="12" lengthAdjust="spacingAndGlyphs" textLength="54" x="476" y="79.1016">element4</text><line style="stroke: #A80036; stroke-width: 1.5;" x1="457" x2="549" y1="83.6328" y2="83.6328"/><text fill="#000000" font-family="sans-serif" font-size="10" lengthAdjust="spacingAndGlyphs" textLength="82" x="462" y="97.3008">next = element5</text><text fill="#000000" font-family="sans-serif" font-size="10" lengthAdjust="spacingAndGlyphs" textLength="71" x="462" y="109.0781">value = "little"</text><rect fill="#FEFECE" filter="url(#f1ixxmmn68d63h)" height="49.6875" style="stroke: #A80036; stroke-width: 1.5;" width="84" x="585" y="65.5"/><text fill="#000000" font-family="sans-serif" font-size="12" lengthAdjust="spacingAndGlyphs" textLength="54" x="600" y="79.1016">element5</text><line style="stroke: #A80036; stroke-width: 1.5;" x1="586" x2="668" y1="83.6328" y2="83.6328"/><text fill="#000000" font-family="sans-serif" font-size="10" lengthAdjust="spacingAndGlyphs" textLength="72" x="591" y="97.3008">value = "lamb"</text><text fill="#000000" font-family="sans-serif" font-size="10" lengthAdjust="spacingAndGlyphs" textLength="54" x="591" y="109.0781">next = null</text><!--link user to list1--><path d="M36.375,90.5 C46.1193,90.5 55.8636,90.5 65.608,90.5 " fill="none" id="user-list1" style="stroke: #A80036; stroke-width: 1.0;"/><polygon fill="#A80036" points="70.7036,90.5,61.7036,86.5,65.7036,90.5,61.7036,94.5,70.7036,90.5" style="stroke: #A80036; stroke-width: 1.0;"/><!--link list1 to element1--><path d="M176.6622,90.5 C179.3148,90.5 181.9673,90.5 184.6199,90.5 " fill="none" id="list1-element1" style="stroke: #A80036; stroke-width: 1.0;"/><polygon fill="#A80036" points="197.8828,90.5,188.8828,86.5,192.8828,90.5,188.8828,94.5,197.8828,90.5" style="stroke: #A80036; stroke-width: 1.0;"/><line style="stroke: #A80036; stroke-width: 1.0;" x1="192.8828" x2="184.8828" y1="90.5" y2="90.4999"/><polygon fill="#A80036" points="163.5,90.5,169.5,94.5,175.5,90.5,169.5,86.5,163.5,90.5" style="stroke: #A80036; stroke-width: 1.0;"/><!--link element1 to element2--><path d="M305.1896,90.5 C308.0269,90.5 310.8643,90.5 313.7016,90.5 " fill="none" id="element1-element2" style="stroke: #A80036; stroke-width: 1.0;"/><polygon fill="#A80036" points="326.9802,90.5,317.9802,86.5,321.9802,90.5,317.9802,94.5,326.9802,90.5" style="stroke: #A80036; stroke-width: 1.0;"/><line style="stroke: #A80036; stroke-width: 1.0;" x1="321.9802" x2="313.9803" y1="90.5" y2="90.4999"/><polygon fill="#A80036" points="292.1152,90.5,298.1152,94.5,304.1152,90.5,298.1152,86.5,292.1152,90.5" style="stroke: #A80036; stroke-width: 1.0;"/><!--link element2 to element5--><path d="M403.3991,55.7845 C417.763,41.4907 436.3001,26.5352 456.5,19 C495.643,4.3984 511.6379,3.6663 550.5,19 C569.4145,26.463 586.4045,41.0539 599.541,55.1192 " fill="none" id="element2-element5" style="stroke: #A80036; stroke-width: 1.0;"/><polygon fill="#A80036" points="608.3978,65.1587,605.4434,55.7634,605.09,61.4092,599.4442,61.0559,608.3978,65.1587" style="stroke: #A80036; stroke-width: 1.0;"/><line style="stroke: #A80036; stroke-width: 1.0;" x1="605.09" x2="599.7976" y1="61.4092" y2="55.41"/><polygon fill="#A80036" points="394.1524,65.4752,401.1884,63.8956,402.4364,56.7933,395.4005,58.3729,394.1524,65.4752" style="stroke: #A80036; stroke-width: 1.0;"/><!--link element4 to element5--><path d="M563.6296,90.5 C566.2819,90.5 568.9342,90.5 571.5865,90.5 " fill="none" id="element4-element5" style="stroke: #A80036; stroke-width: 1.0;"/><polygon fill="#A80036" points="584.848,90.5,575.848,86.5,579.848,90.5,575.848,94.5,584.848,90.5" style="stroke: #A80036; stroke-width: 1.0;"/><line style="stroke: #A80036; stroke-width: 1.0;" x1="579.848" x2="571.8481" y1="90.5" y2="90.4999"/><polygon fill="#A80036" points="550.4688,90.5,556.4688,94.5,562.4688,90.5,556.4688,86.5,550.4688,90.5" style="stroke: #A80036; stroke-width: 1.0;"/><!--
@startuml
allow_mixing

actor user

object list1 {
	first = element1
}

user -right-> list1

object element1 {
	next = element2
	value = "Mary"
}

object element2 {
	next = element3
	value = "had"
}

object element3 {
	next = element5
	value = "a"
}

object element4 {
	next = element5
	value = "little"
}

object element5 {
	value = "lamb"
	next = null
}

list1 *-right-> element1
element1 *-right-> element2
element2 *-right-> element5
element4 *-right-> element5

@enduml

PlantUML version 1.2017.16(Sun Sep 03 12:53:37 CEST 2017)
(GPL source distribution)
Java Runtime: Java(TM) SE Runtime Environment
JVM: Java HotSpot(TM) 64-Bit Server VM
Java Version: 1.8.0_144-b01
Operating System: Mac OS X
OS Version: 10.13.1
Default Encoding: UTF-8
Language: en
Country: US
--></g></svg>