<?xml version="1.0" encoding="UTF-8" standalone="no"?><svg xmlns="http://www.w3.org/2000/svg" xmlns:xlink="http://www.w3.org/1999/xlink" contentScriptType="application/ecmascript" contentStyleType="text/css" height="102px" preserveAspectRatio="none" style="width:809px;height:102px;" version="1.1" viewBox="0 0 809 102" width="809px" zoomAndPan="magnify"><defs><filter height="300%" id="fypw97o1e9yn4" width="300%" x="-1" y="-1"><feGaussianBlur result="blurOut" stdDeviation="2.0"/><feColorMatrix in="blurOut" result="blurOut2" type="matrix" values="0 0 0 0 0 0 0 0 0 0 0 0 0 0 0 0 0 0 .4 0"/><feOffset dx="4.0" dy="4.0" in="blurOut2" result="blurOut3"/><feBlend in="SourceGraphic" in2="blurOut3" mode="normal"/></filter></defs><g><!--entity user--><ellipse cx="21" cy="18" fill="#FEFECE" filter="url(#fypw97o1e9yn4)" rx="8" ry="8" style="stroke: #A80036; stroke-width: 2.0;"/><path d="M21,26 L21,53 M8,34 L34,34 M21,53 L8,68 M21,53 L34,68 " fill="#FEFECE" filter="url(#fypw97o1e9yn4)" style="stroke: #A80036; stroke-width: 2.0;"/><text fill="#000000" font-family="sans-serif" font-size="14" lengthAdjust="spacingAndGlyphs" textLength="30" x="6" y="88.5352">user</text><rect fill="#FEFECE" filter="url(#fypw97o1e9yn4)" height="37.9102" style="stroke: #A80036; stroke-width: 1.5;" width="92" x="71" y="30.5"/><text fill="#000000" font-family="sans-serif" font-size="12" lengthAdjust="spacingAndGlyphs" textLength="24" x="105" y="44.1016">list1</text><line style="stroke: #A80036; stroke-width: 1.5;" x1="72" x2="162" y1="48.6328" y2="48.6328"/><text fill="#000000" font-family="sans-serif" font-size="10" lengthAdjust="spacingAndGlyphs" textLength="80" x="77" y="62.3008">first = element1</text><rect fill="#FEFECE" filter="url(#fypw97o1e9yn4)" height="49.6875" style="stroke: #A80036; stroke-width: 1.5;" width="94" x="198" y="24.5"/><text fill="#000000" font-family="sans-serif" font-size="12" lengthAdjust="spacingAndGlyphs" textLength="54" x="218" y="38.1016">element1</text><line style="stroke: #A80036; stroke-width: 1.5;" x1="199" x2="291" y1="42.6328" y2="42.6328"/><text fill="#000000" font-family="sans-serif" font-size="10" lengthAdjust="spacingAndGlyphs" textLength="82" x="204" y="56.3008">next = element2</text><text fill="#000000" font-family="sans-serif" font-size="10" lengthAdjust="spacingAndGlyphs" textLength="72" x="204" y="68.0781">value = "Mary"</text><rect fill="#FEFECE" filter="url(#fypw97o1e9yn4)" height="49.6875" style="stroke: #A80036; stroke-width: 1.5;" width="94" x="327" y="24.5"/><text fill="#000000" font-family="sans-serif" font-size="12" lengthAdjust="spacingAndGlyphs" textLength="54" x="347" y="38.1016">element2</text><line style="stroke: #A80036; stroke-width: 1.5;" x1="328" x2="420" y1="42.6328" y2="42.6328"/><text fill="#000000" font-family="sans-serif" font-size="10" lengthAdjust="spacingAndGlyphs" textLength="82" x="333" y="56.3008">next = element3</text><text fill="#000000" font-family="sans-serif" font-size="10" lengthAdjust="spacingAndGlyphs" textLength="66" x="333" y="68.0781">value = "had"</text><rect fill="#FEFECE" filter="url(#fypw97o1e9yn4)" height="49.6875" style="stroke: #A80036; stroke-width: 1.5;" width="94" x="456" y="24.5"/><text fill="#000000" font-family="sans-serif" font-size="12" lengthAdjust="spacingAndGlyphs" textLength="54" x="476" y="38.1016">element3</text><line style="stroke: #A80036; stroke-width: 1.5;" x1="457" x2="549" y1="42.6328" y2="42.6328"/><text fill="#000000" font-family="sans-serif" font-size="10" lengthAdjust="spacingAndGlyphs" textLength="82" x="462" y="56.3008">next = element5</text><text fill="#000000" font-family="sans-serif" font-size="10" lengthAdjust="spacingAndGlyphs" textLength="54" x="462" y="68.0781">value = "a"</text><rect fill="#FEFECE" filter="url(#fypw97o1e9yn4)" height="49.6875" style="stroke: #A80036; stroke-width: 1.5;" width="94" x="704" y="24.5"/><text fill="#000000" font-family="sans-serif" font-size="12" lengthAdjust="spacingAndGlyphs" textLength="54" x="724" y="38.1016">element4</text><line style="stroke: #A80036; stroke-width: 1.5;" x1="705" x2="797" y1="42.6328" y2="42.6328"/><text fill="#000000" font-family="sans-serif" font-size="10" lengthAdjust="spacingAndGlyphs" textLength="82" x="710" y="56.3008">next = element5</text><text fill="#000000" font-family="sans-serif" font-size="10" lengthAdjust="spacingAndGlyphs" textLength="71" x="710" y="68.0781">value = "little"</text><rect fill="#FEFECE" filter="url(#fypw97o1e9yn4)" height="49.6875" style="stroke: #A80036; stroke-width: 1.5;" width="84" x="585" y="24.5"/><text fill="#000000" font-family="sans-serif" font-size="12" lengthAdjust="spacingAndGlyphs" textLength="54" x="600" y="38.1016">element5</text><line style="stroke: #A80036; stroke-width: 1.5;" x1="586" x2="668" y1="42.6328" y2="42.6328"/><text fill="#000000" font-family="sans-serif" font-size="10" lengthAdjust="spacingAndGlyphs" textLength="72" x="591" y="56.3008">value = "lamb"</text><text fill="#000000" font-family="sans-serif" font-size="10" lengthAdjust="spacingAndGlyphs" textLength="54" x="591" y="68.0781">next = null</text><!--link user to list1--><path d="M36.375,49.5 C46.1193,49.5 55.8636,49.5 65.608,49.5 " fill="none" id="user-list1" style="stroke: #A80036; stroke-width: 1.0;"/><polygon fill="#A80036" points="70.7036,49.5,61.7036,45.5,65.7036,49.5,61.7036,53.5,70.7036,49.5" style="stroke: #A80036; stroke-width: 1.0;"/><!--link list1 to element1--><path d="M176.6622,49.5 C179.3148,49.5 181.9673,49.5 184.6199,49.5 " fill="none" id="list1-element1" style="stroke: #A80036; stroke-width: 1.0;"/><polygon fill="#A80036" points="197.8828,49.5,188.8828,45.5,192.8828,49.5,188.8828,53.5,197.8828,49.5" style="stroke: #A80036; stroke-width: 1.0;"/><line style="stroke: #A80036; stroke-width: 1.0;" x1="192.8828" x2="184.8828" y1="49.5" y2="49.4999"/><polygon fill="#A80036" points="163.5,49.5,169.5,53.5,175.5,49.5,169.5,45.5,163.5,49.5" style="stroke: #A80036; stroke-width: 1.0;"/><!--link element1 to element2--><path d="M305.1896,49.5 C308.0269,49.5 310.8643,49.5 313.7016,49.5 " fill="none" id="element1-element2" style="stroke: #A80036; stroke-width: 1.0;"/><polygon fill="#A80036" points="326.9802,49.5,317.9802,45.5,321.9802,49.5,317.9802,53.5,326.9802,49.5" style="stroke: #A80036; stroke-width: 1.0;"/><line style="stroke: #A80036; stroke-width: 1.0;" x1="321.9802" x2="313.9803" y1="49.5" y2="49.4999"/><polygon fill="#A80036" points="292.1152,49.5,298.1152,53.5,304.1152,49.5,298.1152,45.5,292.1152,49.5" style="stroke: #A80036; stroke-width: 1.0;"/><!--link element2 to element3--><path d="M434.1896,49.5 C437.0269,49.5 439.8643,49.5 442.7016,49.5 " fill="none" id="element2-element3" style="stroke: #A80036; stroke-width: 1.0;"/><polygon fill="#A80036" points="455.9802,49.5,446.9802,45.5,450.9802,49.5,446.9802,53.5,455.9802,49.5" style="stroke: #A80036; stroke-width: 1.0;"/><line style="stroke: #A80036; stroke-width: 1.0;" x1="450.9802" x2="442.9803" y1="49.5" y2="49.4999"/><polygon fill="#A80036" points="421.1152,49.5,427.1152,53.5,433.1152,49.5,427.1152,45.5,421.1152,49.5" style="stroke: #A80036; stroke-width: 1.0;"/><!--link element3 to element5--><path d="M563.6296,49.5 C566.2819,49.5 568.9342,49.5 571.5865,49.5 " fill="none" id="element3-element5" style="stroke: #A80036; stroke-width: 1.0;"/><polygon fill="#A80036" points="584.848,49.5,575.848,45.5,579.848,49.5,575.848,53.5,584.848,49.5" style="stroke: #A80036; stroke-width: 1.0;"/><line style="stroke: #A80036; stroke-width: 1.0;" x1="579.848" x2="571.8481" y1="49.5" y2="49.4999"/><polygon fill="#A80036" points="550.4688,49.5,556.4688,53.5,562.4688,49.5,556.4688,45.5,550.4688,49.5" style="stroke: #A80036; stroke-width: 1.0;"/><!--
@startuml
allow_mixing

actor user

object list1 {
	first = element1
}

user -right-> list1

object element1 {
	next = element2
	value = "Mary"
}

object element2 {
	next = element3
	value = "had"
}

object element3 {
	next = element5
	value = "a"
}

object element4 {
	next = element5
	value = "little"
}

object element5 {
	value = "lamb"
	next = null
}

list1 *-right-> element1
element1 *-right-> element2
element2 *-right-> element3
element3 *-right-> element5

@enduml

PlantUML version 1.2017.16(Sun Sep 03 12:53:37 CEST 2017)
(GPL source distribution)
Java Runtime: Java(TM) SE Runtime Environment
JVM: Java HotSpot(TM) 64-Bit Server VM
Java Version: 1.8.0_144-b01
Operating System: Mac OS X
OS Version: 10.13.1
Default Encoding: UTF-8
Language: en
Country: US
--></g></svg>