<?xml version="1.0" encoding="UTF-8" standalone="no"?><svg xmlns="http://www.w3.org/2000/svg" xmlns:xlink="http://www.w3.org/1999/xlink" contentScriptType="application/ecmascript" contentStyleType="text/css" height="138px" preserveAspectRatio="none" style="width:823px;height:138px;" version="1.1" viewBox="0 0 823 138" width="823px" zoomAndPan="magnify"><defs><filter height="300%" id="f1hl5igil34pys" width="300%" x="-1" y="-1"><feGaussianBlur result="blurOut" stdDeviation="2.0"/><feColorMatrix in="blurOut" result="blurOut2" type="matrix" values="0 0 0 0 0 0 0 0 0 0 0 0 0 0 0 0 0 0 .4 0"/><feOffset dx="4.0" dy="4.0" in="blurOut2" result="blurOut3"/><feBlend in="SourceGraphic" in2="blurOut3" mode="normal"/></filter></defs><g><!--entity User--><ellipse cx="21.5" cy="50.5" fill="#FEFECE" filter="url(#f1hl5igil34pys)" rx="8" ry="8" style="stroke: #A80036; stroke-width: 2.0;"/><path d="M21.5,58.5 L21.5,85.5 M8.5,66.5 L34.5,66.5 M21.5,85.5 L8.5,100.5 M21.5,85.5 L34.5,100.5 " fill="#FEFECE" filter="url(#f1hl5igil34pys)" style="stroke: #A80036; stroke-width: 2.0;"/><text fill="#000000" font-family="sans-serif" font-size="14" lengthAdjust="spacingAndGlyphs" textLength="31" x="6" y="121.0352">User</text><rect fill="#FEFECE" filter="url(#f1hl5igil34pys)" height="37.9102" style="stroke: #A80036; stroke-width: 1.5;" width="52" x="266" y="63"/><text fill="#000000" font-family="sans-serif" font-size="12" lengthAdjust="spacingAndGlyphs" textLength="33" x="275.5" y="76.6016">baum</text><line style="stroke: #A80036; stroke-width: 1.5;" x1="267" x2="317" y1="81.1328" y2="81.1328"/><text fill="#000000" font-family="sans-serif" font-size="10" lengthAdjust="spacingAndGlyphs" textLength="40" x="272" y="94.8008">root = 4</text><rect fill="#FEFECE" filter="url(#f1hl5igil34pys)" height="49.6875" style="stroke: #A80036; stroke-width: 1.5;" width="67" x="406" y="57"/><text fill="#000000" font-family="sans-serif" font-size="12" lengthAdjust="spacingAndGlyphs" textLength="8" x="435.5" y="70.6016">4</text><line style="stroke: #A80036; stroke-width: 1.5;" x1="407" x2="472" y1="75.1328" y2="75.1328"/><text fill="#000000" font-family="sans-serif" font-size="10" lengthAdjust="spacingAndGlyphs" textLength="37" x="412" y="88.8008">left = 2</text><text fill="#000000" font-family="sans-serif" font-size="10" lengthAdjust="spacingAndGlyphs" textLength="55" x="412" y="100.5781">right = null</text><rect fill="#FEFECE" filter="url(#f1hl5igil34pys)" height="49.6875" style="stroke: #A80036; stroke-width: 1.5;" width="61" x="601" y="8"/><text fill="#000000" font-family="sans-serif" font-size="12" lengthAdjust="spacingAndGlyphs" textLength="8" x="627.5" y="21.6016">2</text><line style="stroke: #A80036; stroke-width: 1.5;" x1="602" x2="661" y1="26.1328" y2="26.1328"/><text fill="#000000" font-family="sans-serif" font-size="10" lengthAdjust="spacingAndGlyphs" textLength="49" x="607" y="39.8008">left = null</text><text fill="#000000" font-family="sans-serif" font-size="10" lengthAdjust="spacingAndGlyphs" textLength="43" x="607" y="51.5781">right = 3</text><rect fill="#FEFECE" filter="url(#f1hl5igil34pys)" height="34.1328" style="stroke: #A80036; stroke-width: 1.5;" width="22" x="790" y="16"/><text fill="#000000" font-family="sans-serif" font-size="12" lengthAdjust="spacingAndGlyphs" textLength="8" x="797" y="29.6016">3</text><line style="stroke: #A80036; stroke-width: 1.5;" x1="791" x2="811" y1="34.1328" y2="34.1328"/><rect fill="#FEFECE" filter="url(#f1hl5igil34pys)" height="34.1328" style="stroke: #A80036; stroke-width: 1.5;" width="22" x="620.5" y="93"/><text fill="#000000" font-family="sans-serif" font-size="12" lengthAdjust="spacingAndGlyphs" textLength="8" x="627.5" y="106.6016">6</text><line style="stroke: #A80036; stroke-width: 1.5;" x1="621.5" x2="641.5" y1="111.1328" y2="111.1328"/><!--link User to baum--><path d="M37.2124,82 C80.6653,82 203.0483,82 260.9272,82 " fill="none" id="User-baum" style="stroke: #A80036; stroke-width: 1.0; stroke-dasharray: 7.0,7.0;"/><polygon fill="#A80036" points="265.9876,82,256.9876,78,260.9876,82,256.9876,86,265.9876,82" style="stroke: #A80036; stroke-width: 1.0;"/><text fill="#000000" font-family="sans-serif" font-size="13" lengthAdjust="spacingAndGlyphs" textLength="43" x="130" y="78.5684">.add(6)</text><!--link baum to 4--><path d="M318.0305,82 C340.9808,82 374.7357,82 400.8413,82 " fill="none" id="baum-4" style="stroke: #A80036; stroke-width: 1.0;"/><polygon fill="#A80036" points="405.955,82,396.955,78,400.955,82,396.955,86,405.955,82" style="stroke: #A80036; stroke-width: 1.0;"/><text fill="#000000" font-family="sans-serif" font-size="13" lengthAdjust="spacingAndGlyphs" textLength="26" x="349" y="78.5684">root</text><!--link 2 to 3--><path d="M662.1952,33 C698.1494,33 756.3801,33 784.6119,33 " fill="none" id="2-3" style="stroke: #A80036; stroke-width: 1.0;"/><polygon fill="#A80036" points="789.8428,33,780.8428,29,784.8428,33,780.8428,37,789.8428,33" style="stroke: #A80036; stroke-width: 1.0;"/><text fill="#000000" font-family="sans-serif" font-size="13" lengthAdjust="spacingAndGlyphs" textLength="66" x="693" y="29.5684">groesser 3</text><!--link 4 to 2--><path d="M473.3838,73.3526 C507.7577,64.5801 560.7517,51.0556 595.7734,42.1177 " fill="none" id="4-2" style="stroke: #A80036; stroke-width: 1.0;"/><polygon fill="#A80036" points="600.8057,40.8334,591.0961,39.1832,595.961,42.0698,593.0744,46.9347,600.8057,40.8334" style="stroke: #A80036; stroke-width: 1.0;"/><text fill="#000000" font-family="sans-serif" font-size="13" lengthAdjust="spacingAndGlyphs" textLength="55" x="509.5" y="44.5684">kleiner 4</text><!--link 4 to 6--><path d="M473.0056,94.9182 C482.5606,98.0962 493.0739,101.1229 503,103 C542.7984,110.5263 590.6711,110.9034 615.2238,110.4825 " fill="none" id="4-6" style="stroke: #A80036; stroke-width: 1.0;"/><polygon fill="#A80036" points="620.3808,110.376,611.3001,106.5628,615.3819,110.4793,611.4654,114.5611,620.3808,110.376" style="stroke: #A80036; stroke-width: 1.0;"/><text fill="#000000" font-family="sans-serif" font-size="13" lengthAdjust="spacingAndGlyphs" textLength="66" x="504" y="99.5684">groesser 4</text><!--
@startuml
left to right direction
allow_mixing

actor User

object baum {
	root = 4
}

User -..-> baum: ".add(6)"

object 4 {
	left = 2
	right = null
}

baum - -> 4 : root

object 2 {
	left = null
	right = 3
}

object 3

2 - -> 3 : "groesser 3"

object 6

4 - -> 2 : "kleiner 4"
4 - -> 6 : "groesser 4"

@enduml

PlantUML version 1.2017.16(Sun Sep 03 12:53:37 CEST 2017)
(GPL source distribution)
Java Runtime: Java(TM) SE Runtime Environment
JVM: Java HotSpot(TM) 64-Bit Server VM
Java Version: 1.8.0_144-b01
Operating System: Mac OS X
OS Version: 10.13.1
Default Encoding: UTF-8
Language: en
Country: US
--></g></svg>