<?xml version="1.0" encoding="UTF-8" standalone="no"?><svg xmlns="http://www.w3.org/2000/svg" xmlns:xlink="http://www.w3.org/1999/xlink" contentScriptType="application/ecmascript" contentStyleType="text/css" height="435px" preserveAspectRatio="none" style="width:186px;height:435px;" version="1.1" viewBox="0 0 186 435" width="186px" zoomAndPan="magnify"><defs><filter height="300%" id="f19v89hca92m5g" width="300%" x="-1" y="-1"><feGaussianBlur result="blurOut" stdDeviation="2.0"/><feColorMatrix in="blurOut" result="blurOut2" type="matrix" values="0 0 0 0 0 0 0 0 0 0 0 0 0 0 0 0 0 0 .4 0"/><feOffset dx="4.0" dy="4.0" in="blurOut2" result="blurOut3"/><feBlend in="SourceGraphic" in2="blurOut3" mode="normal"/></filter></defs><g><!--entity User--><ellipse cx="159" cy="18" fill="#FEFECE" filter="url(#f19v89hca92m5g)" rx="8" ry="8" style="stroke: #A80036; stroke-width: 2.0;"/><path d="M159,26 L159,53 M146,34 L172,34 M159,53 L146,68 M159,53 L172,68 " fill="#FEFECE" filter="url(#f19v89hca92m5g)" style="stroke: #A80036; stroke-width: 2.0;"/><text fill="#000000" font-family="sans-serif" font-size="14" lengthAdjust="spacingAndGlyphs" textLength="31" x="143.5" y="88.5352">User</text><rect fill="#FEFECE" filter="url(#f19v89hca92m5g)" height="37.9102" style="stroke: #A80036; stroke-width: 1.5;" width="52" x="56" y="30.5"/><text fill="#000000" font-family="sans-serif" font-size="12" lengthAdjust="spacingAndGlyphs" textLength="33" x="65.5" y="44.1016">baum</text><line style="stroke: #A80036; stroke-width: 1.5;" x1="57" x2="107" y1="48.6328" y2="48.6328"/><text fill="#000000" font-family="sans-serif" font-size="10" lengthAdjust="spacingAndGlyphs" textLength="40" x="62" y="62.3008">root = 4</text><rect fill="#FEFECE" filter="url(#f19v89hca92m5g)" height="49.6875" style="stroke: #A80036; stroke-width: 1.5;" width="55" x="54.5" y="168"/><text fill="#000000" font-family="sans-serif" font-size="12" lengthAdjust="spacingAndGlyphs" textLength="8" x="78" y="181.6016">4</text><line style="stroke: #A80036; stroke-width: 1.5;" x1="55.5" x2="108.5" y1="186.1328" y2="186.1328"/><text fill="#000000" font-family="sans-serif" font-size="10" lengthAdjust="spacingAndGlyphs" textLength="37" x="60.5" y="199.8008">left = 2</text><text fill="#000000" font-family="sans-serif" font-size="10" lengthAdjust="spacingAndGlyphs" textLength="43" x="60.5" y="211.5781">right = 6</text><rect fill="#FEFECE" filter="url(#f19v89hca92m5g)" height="49.6875" style="stroke: #A80036; stroke-width: 1.5;" width="55" x="17.5" y="279"/><text fill="#000000" font-family="sans-serif" font-size="12" lengthAdjust="spacingAndGlyphs" textLength="8" x="41" y="292.6016">2</text><line style="stroke: #A80036; stroke-width: 1.5;" x1="18.5" x2="71.5" y1="297.1328" y2="297.1328"/><text fill="#000000" font-family="sans-serif" font-size="10" lengthAdjust="spacingAndGlyphs" textLength="37" x="23.5" y="310.8008">left = 1</text><text fill="#000000" font-family="sans-serif" font-size="10" lengthAdjust="spacingAndGlyphs" textLength="43" x="23.5" y="322.5781">right = 3</text><rect fill="#FEFECE" filter="url(#f19v89hca92m5g)" height="34.1328" style="stroke: #A80036; stroke-width: 1.5;" width="22" x="6" y="390"/><text fill="#000000" font-family="sans-serif" font-size="12" lengthAdjust="spacingAndGlyphs" textLength="8" x="13" y="403.6016">1</text><line style="stroke: #A80036; stroke-width: 1.5;" x1="7" x2="27" y1="408.1328" y2="408.1328"/><rect fill="#FEFECE" filter="url(#f19v89hca92m5g)" height="34.1328" style="stroke: #A80036; stroke-width: 1.5;" width="22" x="63" y="390"/><text fill="#000000" font-family="sans-serif" font-size="12" lengthAdjust="spacingAndGlyphs" textLength="8" x="70" y="403.6016">3</text><line style="stroke: #A80036; stroke-width: 1.5;" x1="64" x2="84" y1="408.1328" y2="408.1328"/><rect fill="#FEFECE" filter="url(#f19v89hca92m5g)" height="34.1328" style="stroke: #A80036; stroke-width: 1.5;" width="22" x="108" y="287"/><text fill="#000000" font-family="sans-serif" font-size="12" lengthAdjust="spacingAndGlyphs" textLength="8" x="115" y="300.6016">6</text><line style="stroke: #A80036; stroke-width: 1.5;" x1="109" x2="129" y1="305.1328" y2="305.1328"/><!--link baum to User--><path d="M113.3554,49.5 C123.2753,49.5 133.1951,49.5 143.115,49.5 " fill="none" id="baum-User" style="stroke: #A80036; stroke-width: 1.0; stroke-dasharray: 7.0,7.0;"/><polygon fill="#A80036" points="108.168,49.5,117.168,53.5,113.168,49.5,117.168,45.5,108.168,49.5" style="stroke: #A80036; stroke-width: 1.0;"/><!--link baum to 4--><path d="M82,68.5557 C82,92.5995 82,134.2382 82,162.6739 " fill="none" id="baum-4" style="stroke: #A80036; stroke-width: 1.0;"/><polygon fill="#A80036" points="82,167.8227,86,158.8227,82,162.8227,78,158.8227,82,167.8227" style="stroke: #A80036; stroke-width: 1.0;"/><text fill="#000000" font-family="sans-serif" font-size="13" lengthAdjust="spacingAndGlyphs" textLength="26" x="83" y="134.5684">root</text><!--link 2 to 1--><path d="M38.1504,329.1966 C33.514,346.2522 27.4473,368.5689 23.0008,384.9257 " fill="none" id="2-1" style="stroke: #A80036; stroke-width: 1.0;"/><polygon fill="#A80036" points="21.6762,389.7982,27.8972,382.1628,22.9879,384.9733,20.1774,380.0641,21.6762,389.7982" style="stroke: #A80036; stroke-width: 1.0;"/><!--link 2 to 3--><path d="M52.0942,329.1966 C56.8962,346.2522 63.1796,368.5689 67.7849,384.9257 " fill="none" id="2-3" style="stroke: #A80036; stroke-width: 1.0;"/><polygon fill="#A80036" points="69.1568,389.7982,70.5678,380.0509,67.8017,384.9853,62.8673,382.2192,69.1568,389.7982" style="stroke: #A80036; stroke-width: 1.0;"/><!--link 4 to 2--><path d="M73.6041,218.1876 C68.0692,234.7923 60.7937,256.6189 54.9655,274.1036 " fill="none" id="4-2" style="stroke: #A80036; stroke-width: 1.0;"/><polygon fill="#A80036" points="53.3626,278.9121,60.0036,271.639,54.9439,274.1687,52.4142,269.109,53.3626,278.9121" style="stroke: #A80036; stroke-width: 1.0;"/><!--link 4 to 6--><path d="M90.3959,218.1876 C96.7883,237.3649 105.5025,263.5074 111.6273,281.882 " fill="none" id="4-6" style="stroke: #A80036; stroke-width: 1.0;"/><polygon fill="#A80036" points="113.2821,286.8464,114.2308,277.0433,111.701,282.103,106.6413,279.5732,113.2821,286.8464" style="stroke: #A80036; stroke-width: 1.0;"/><!--
@startuml
allow_mixing

actor User

object baum {
	root = 4
}

User -.left.-> baum

object 4 {
	left = 2
	right = 6
}

baum - -> 4 : root

object 2 {
	left = 1
	right = 3
}

object 1
object 3

2 - -> 1
2 - -> 3

object 6

4 - -> 2
4 - -> 6

@enduml

PlantUML version 1.2017.16(Sun Sep 03 12:53:37 CEST 2017)
(GPL source distribution)
Java Runtime: Java(TM) SE Runtime Environment
JVM: Java HotSpot(TM) 64-Bit Server VM
Java Version: 1.8.0_144-b01
Operating System: Mac OS X
OS Version: 10.13.1
Default Encoding: UTF-8
Language: en
Country: US
--></g></svg>