<?xml version="1.0" encoding="UTF-8" standalone="no"?><svg xmlns="http://www.w3.org/2000/svg" xmlns:xlink="http://www.w3.org/1999/xlink" contentScriptType="application/ecmascript" contentStyleType="text/css" height="175px" preserveAspectRatio="none" style="width:148px;height:175px;" version="1.1" viewBox="0 0 148 175" width="148px" zoomAndPan="magnify"><defs><filter height="300%" id="fv864ywmo79i8" width="300%" x="-1" y="-1"><feGaussianBlur result="blurOut" stdDeviation="2.0"/><feColorMatrix in="blurOut" result="blurOut2" type="matrix" values="0 0 0 0 0 0 0 0 0 0 0 0 0 0 0 0 0 0 .4 0"/><feOffset dx="4.0" dy="4.0" in="blurOut2" result="blurOut3"/><feBlend in="SourceGraphic" in2="blurOut3" mode="normal"/></filter></defs><g><!--class B--><rect fill="#FEFECE" filter="url(#fv864ywmo79i8)" height="48" id="B" style="stroke: #A80036; stroke-width: 1.5;" width="39" x="10.5" y="8"/><ellipse cx="25.5" cy="24" fill="#ADD1B2" rx="11" ry="11" style="stroke: #A80036; stroke-width: 1.0;"/><path d="M28.4731,29.6431 Q27.8921,29.9419 27.2529,30.0913 Q26.6138,30.2407 25.9082,30.2407 Q23.4014,30.2407 22.0815,28.5889 Q20.7617,26.937 20.7617,23.8159 Q20.7617,20.6865 22.0815,19.0347 Q23.4014,17.3828 25.9082,17.3828 Q26.6138,17.3828 27.2612,17.5322 Q27.9087,17.6816 28.4731,17.9805 L28.4731,20.7031 Q27.8423,20.1221 27.2488,19.8523 Q26.6553,19.5825 26.0244,19.5825 Q24.6797,19.5825 23.9949,20.6492 Q23.3101,21.7158 23.3101,23.8159 Q23.3101,25.9077 23.9949,26.9744 Q24.6797,28.041 26.0244,28.041 Q26.6553,28.041 27.2488,27.7712 Q27.8423,27.5015 28.4731,26.9204 Z "/><text fill="#000000" font-family="sans-serif" font-size="12" lengthAdjust="spacingAndGlyphs" textLength="7" x="39.5" y="28.5352">B</text><line style="stroke: #A80036; stroke-width: 1.5;" x1="11.5" x2="48.5" y1="40" y2="40"/><line style="stroke: #A80036; stroke-width: 1.5;" x1="11.5" x2="48.5" y1="48" y2="48"/><!--class K1--><rect fill="#FEFECE" filter="url(#fv864ywmo79i8)" height="48" id="K1" style="stroke: #A80036; stroke-width: 1.5;" width="48" x="6" y="116"/><ellipse cx="21" cy="132" fill="#ADD1B2" rx="11" ry="11" style="stroke: #A80036; stroke-width: 1.0;"/><path d="M23.9731,137.6431 Q23.3921,137.9419 22.7529,138.0913 Q22.1138,138.2407 21.4082,138.2407 Q18.9014,138.2407 17.5815,136.5889 Q16.2617,134.937 16.2617,131.8159 Q16.2617,128.6865 17.5815,127.0347 Q18.9014,125.3828 21.4082,125.3828 Q22.1138,125.3828 22.7612,125.5322 Q23.4087,125.6816 23.9731,125.9805 L23.9731,128.7031 Q23.3423,128.1221 22.7488,127.8523 Q22.1553,127.5825 21.5244,127.5825 Q20.1797,127.5825 19.4949,128.6492 Q18.8101,129.7158 18.8101,131.8159 Q18.8101,133.9077 19.4949,134.9744 Q20.1797,136.041 21.5244,136.041 Q22.1553,136.041 22.7488,135.7712 Q23.3423,135.5015 23.9731,134.9204 Z "/><text fill="#000000" font-family="sans-serif" font-size="12" lengthAdjust="spacingAndGlyphs" textLength="16" x="35" y="136.5352">K1</text><line style="stroke: #A80036; stroke-width: 1.5;" x1="7" x2="53" y1="148" y2="148"/><line style="stroke: #A80036; stroke-width: 1.5;" x1="7" x2="53" y1="156" y2="156"/><!--class I--><rect fill="#FEFECE" filter="url(#fv864ywmo79i8)" height="48" id="I" style="stroke: #A80036; stroke-width: 1.5;" width="35" x="95.5" y="8"/><ellipse cx="110.5" cy="24" fill="#B4A7E5" rx="11" ry="11" style="stroke: #A80036; stroke-width: 1.0;"/><path d="M106.4277,19.7651 L106.4277,17.6069 L113.8071,17.6069 L113.8071,19.7651 L111.3418,19.7651 L111.3418,27.8418 L113.8071,27.8418 L113.8071,30 L106.4277,30 L106.4277,27.8418 L108.8931,27.8418 L108.8931,19.7651 Z "/><text fill="#000000" font-family="sans-serif" font-size="12" font-style="italic" lengthAdjust="spacingAndGlyphs" textLength="3" x="124.5" y="28.5352">I</text><line style="stroke: #A80036; stroke-width: 1.5;" x1="96.5" x2="129.5" y1="40" y2="40"/><line style="stroke: #A80036; stroke-width: 1.5;" x1="96.5" x2="129.5" y1="48" y2="48"/><!--class K2--><rect fill="#FEFECE" filter="url(#fv864ywmo79i8)" height="48" id="K2" style="stroke: #A80036; stroke-width: 1.5;" width="48" x="89" y="116"/><ellipse cx="104" cy="132" fill="#ADD1B2" rx="11" ry="11" style="stroke: #A80036; stroke-width: 1.0;"/><path d="M106.9731,137.6431 Q106.3921,137.9419 105.7529,138.0913 Q105.1138,138.2407 104.4082,138.2407 Q101.9014,138.2407 100.5815,136.5889 Q99.2617,134.937 99.2617,131.8159 Q99.2617,128.6865 100.5815,127.0347 Q101.9014,125.3828 104.4082,125.3828 Q105.1138,125.3828 105.7612,125.5322 Q106.4087,125.6816 106.9731,125.9805 L106.9731,128.7031 Q106.3423,128.1221 105.7488,127.8523 Q105.1553,127.5825 104.5244,127.5825 Q103.1797,127.5825 102.4949,128.6492 Q101.8101,129.7158 101.8101,131.8159 Q101.8101,133.9077 102.4949,134.9744 Q103.1797,136.041 104.5244,136.041 Q105.1553,136.041 105.7488,135.7712 Q106.3423,135.5015 106.9731,134.9204 Z "/><text fill="#000000" font-family="sans-serif" font-size="12" lengthAdjust="spacingAndGlyphs" textLength="16" x="118" y="136.5352">K2</text><line style="stroke: #A80036; stroke-width: 1.5;" x1="90" x2="136" y1="148" y2="148"/><line style="stroke: #A80036; stroke-width: 1.5;" x1="90" x2="136" y1="156" y2="156"/><!--link B to K1--><path d="M30,76.2911 C30,89.8171 30,104.1835 30,115.8436 " fill="none" id="B-K1" style="stroke: #A80036; stroke-width: 1.0;"/><polygon fill="none" points="23.0001,76.2373,30,56.2373,37.0001,76.2373,23.0001,76.2373" style="stroke: #A80036; stroke-width: 1.0;"/><!--link I to K2--><path d="M113,76.2911 C113,89.8171 113,104.1835 113,115.8436 " fill="none" id="I-K2" style="stroke: #A80036; stroke-width: 1.0; stroke-dasharray: 7.0,7.0;"/><polygon fill="none" points="106.0001,76.2373,113,56.2373,120.0001,76.2373,106.0001,76.2373" style="stroke: #A80036; stroke-width: 1.0;"/><!--
@startuml

class B {
	
}

class K1 extends B {
	
}

interface I {
	
}

class K2 implements I {
	
}

@enduml

PlantUML version 1.2017.16(Sun Sep 03 12:53:37 CEST 2017)
(GPL source distribution)
Java Runtime: Java(TM) SE Runtime Environment
JVM: Java HotSpot(TM) 64-Bit Server VM
Java Version: 1.8.0_144-b01
Operating System: Mac OS X
OS Version: 10.13.1
Default Encoding: UTF-8
Language: en
Country: US
--></g></svg>