<?xml version="1.0" encoding="UTF-8" standalone="no"?><svg xmlns="http://www.w3.org/2000/svg" xmlns:xlink="http://www.w3.org/1999/xlink" contentScriptType="application/ecmascript" contentStyleType="text/css" height="785px" preserveAspectRatio="none" style="width:441px;height:785px;" version="1.1" viewBox="0 0 441 785" width="441px" zoomAndPan="magnify"><defs><filter height="300%" id="f7tuc4z1952ue" width="300%" x="-1" y="-1"><feGaussianBlur result="blurOut" stdDeviation="2.0"/><feColorMatrix in="blurOut" result="blurOut2" type="matrix" values="0 0 0 0 0 0 0 0 0 0 0 0 0 0 0 0 0 0 .4 0"/><feOffset dx="4.0" dy="4.0" in="blurOut2" result="blurOut3"/><feBlend in="SourceGraphic" in2="blurOut3" mode="normal"/></filter></defs><g><ellipse cx="270" cy="18" fill="#000000" filter="url(#f7tuc4z1952ue)" rx="10" ry="10" style="stroke: none; stroke-width: 1.0;"/><rect fill="#FEFECE" filter="url(#f7tuc4z1952ue)" height="50" rx="12.5" ry="12.5" style="stroke: #A80036; stroke-width: 1.5;" width="86" x="227" y="89"/><line style="stroke: #A80036; stroke-width: 1.5;" x1="227" x2="313" y1="115.4883" y2="115.4883"/><text fill="#000000" font-family="sans-serif" font-size="14" lengthAdjust="spacingAndGlyphs" textLength="66" x="237" y="107.5352">schlafend</text><rect fill="#FEFECE" filter="url(#f7tuc4z1952ue)" height="50" rx="12.5" ry="12.5" style="stroke: #A80036; stroke-width: 1.5;" width="99" x="158.5" y="216"/><line style="stroke: #A80036; stroke-width: 1.5;" x1="158.5" x2="257.5" y1="242.4883" y2="242.4883"/><text fill="#000000" font-family="sans-serif" font-size="14" lengthAdjust="spacingAndGlyphs" textLength="79" x="168.5" y="234.5352">aufgewacht</text><rect fill="#FEFECE" filter="url(#f7tuc4z1952ue)" height="50" rx="12.5" ry="12.5" style="stroke: #A80036; stroke-width: 1.5;" width="83" x="89.5" y="343"/><line style="stroke: #A80036; stroke-width: 1.5;" x1="89.5" x2="172.5" y1="369.4883" y2="369.4883"/><text fill="#000000" font-family="sans-serif" font-size="14" lengthAdjust="spacingAndGlyphs" textLength="63" x="99.5" y="361.5352">geduscht</text><rect fill="#FEFECE" filter="url(#f7tuc4z1952ue)" height="50" rx="12.5" ry="12.5" style="stroke: #A80036; stroke-width: 1.5;" width="55" x="152.5" y="470"/><line style="stroke: #A80036; stroke-width: 1.5;" x1="152.5" x2="207.5" y1="496.4883" y2="496.4883"/><text fill="#000000" font-family="sans-serif" font-size="14" lengthAdjust="spacingAndGlyphs" textLength="35" x="162.5" y="488.5352">wach</text><rect fill="#FEFECE" filter="url(#f7tuc4z1952ue)" height="50" rx="12.5" ry="12.5" style="stroke: #A80036; stroke-width: 1.5;" width="68" x="98" y="597"/><line style="stroke: #A80036; stroke-width: 1.5;" x1="98" x2="166" y1="623.4883" y2="623.4883"/><text fill="#000000" font-family="sans-serif" font-size="14" lengthAdjust="spacingAndGlyphs" textLength="48" x="108" y="615.5352">fleissig</text><rect fill="#FEFECE" filter="url(#f7tuc4z1952ue)" height="50" rx="12.5" ry="12.5" style="stroke: #A80036; stroke-width: 1.5;" width="50" x="201" y="597"/><line style="stroke: #A80036; stroke-width: 1.5;" x1="201" x2="251" y1="623.4883" y2="623.4883"/><text fill="#000000" font-family="sans-serif" font-size="14" lengthAdjust="spacingAndGlyphs" textLength="26" x="213" y="615.5352">faul</text><rect fill="#FEFECE" filter="url(#f7tuc4z1952ue)" height="50" rx="12.5" ry="12.5" style="stroke: #A80036; stroke-width: 1.5;" width="59" x="149.5" y="724"/><line style="stroke: #A80036; stroke-width: 1.5;" x1="149.5" x2="208.5" y1="750.4883" y2="750.4883"/><text fill="#000000" font-family="sans-serif" font-size="14" lengthAdjust="spacingAndGlyphs" textLength="39" x="159.5" y="742.5352">müde</text><rect fill="#FEFECE" filter="url(#f7tuc4z1952ue)" height="50" rx="12.5" ry="12.5" style="stroke: #A80036; stroke-width: 1.5;" width="84" x="6" y="89"/><line style="stroke: #A80036; stroke-width: 1.5;" x1="6" x2="90" y1="115.4883" y2="115.4883"/><text fill="#000000" font-family="sans-serif" font-size="14" lengthAdjust="spacingAndGlyphs" textLength="64" x="16" y="107.5352">bettfertig</text><!--link *start to schlafend--><path d="M270,28.2737 C270,41.3608 270,64.5555 270,83.5207 " fill="none" id="*start-schlafend" style="stroke: #A80036; stroke-width: 1.0;"/><polygon fill="#A80036" points="270,88.7458,274,79.7458,270,83.7458,266,79.7458,270,88.7458" style="stroke: #A80036; stroke-width: 1.0;"/><!--link aufgewacht to schlafend--><path d="M224.9117,215.8135 C230.7101,206.6377 236.9933,196.0475 242,186 C248.7126,172.5291 254.9205,157.0331 259.7763,143.8759 " fill="none" id="aufgewacht-schlafend" style="stroke: #A80036; stroke-width: 1.0;"/><polygon fill="#A80036" points="261.5026,139.1425,254.6608,146.227,259.7893,143.8398,262.1765,148.9683,261.5026,139.1425" style="stroke: #A80036; stroke-width: 1.0;"/><text fill="#000000" font-family="sans-serif" font-size="13" lengthAdjust="spacingAndGlyphs" textLength="45" x="250" y="182.5684">snooze</text><!--link schlafend to aufgewacht--><path d="M226.9227,124.8854 C204.2726,133.0372 178.4763,146.7278 165,169 C156.4617,183.1112 163.8998,198.8322 174.8468,211.9752 " fill="none" id="schlafend-aufgewacht" style="stroke: #A80036; stroke-width: 1.0;"/><polygon fill="#A80036" points="178.343,215.9666,175.4219,206.5609,175.0485,212.2054,169.404,211.832,178.343,215.9666" style="stroke: #A80036; stroke-width: 1.0;"/><text fill="#000000" font-family="sans-serif" font-size="13" lengthAdjust="spacingAndGlyphs" textLength="67" x="166" y="182.5684">aufwecken</text><!--link aufgewacht to geduscht--><path d="M184.3671,266.1175 C176.6317,275.1147 168.3924,285.6098 162,296 C153.9337,309.1109 146.9437,324.6917 141.6534,338.0004 " fill="none" id="aufgewacht-geduscht" style="stroke: #A80036; stroke-width: 1.0;"/><polygon fill="#A80036" points="139.7825,342.7921,146.782,335.8634,141.6011,338.1345,139.3299,332.9536,139.7825,342.7921" style="stroke: #A80036; stroke-width: 1.0;"/><text fill="#000000" font-family="sans-serif" font-size="13" lengthAdjust="spacingAndGlyphs" textLength="53" x="163" y="309.5684">duschen</text><!--link aufgewacht to wach--><path d="M215.6038,266.2785 C225.8989,304.8426 240.8391,380.1921 221,440 C217.9944,449.0609 212.8514,457.8398 207.2041,465.625 " fill="none" id="aufgewacht-wach" style="stroke: #A80036; stroke-width: 1.0;"/><polygon fill="#A80036" points="204.0252,469.8433,212.6363,465.0632,207.0344,465.8502,206.2474,460.2484,204.0252,469.8433" style="stroke: #A80036; stroke-width: 1.0;"/><text fill="#000000" font-family="sans-serif" font-size="13" lengthAdjust="spacingAndGlyphs" textLength="76" x="231" y="373.0684">frühstücken</text><!--link geduscht to wach--><path d="M130.5832,393.1028 C131.1258,407.305 133.1404,425.1409 139,440 C142.539,448.9743 147.9431,457.7758 153.6777,465.6154 " fill="none" id="geduscht-wach" style="stroke: #A80036; stroke-width: 1.0;"/><polygon fill="#A80036" points="156.8879,469.8667,154.6566,460.2739,153.8749,465.8765,148.2723,465.0948,156.8879,469.8667" style="stroke: #A80036; stroke-width: 1.0;"/><text fill="#000000" font-family="sans-serif" font-size="13" lengthAdjust="spacingAndGlyphs" textLength="76" x="140" y="436.5684">frühstücken</text><!--link wach to fleissig--><path d="M165.1848,520.175 C160.2023,529.3497 154.9198,539.9422 151,550 C145.7782,563.3987 141.5071,578.7472 138.3463,591.8214 " fill="none" id="wach-fleissig" style="stroke: #A80036; stroke-width: 1.0;"/><polygon fill="#A80036" points="137.1467,596.8978,143.1094,589.0591,138.2967,592.0318,135.3239,587.2191,137.1467,596.8978" style="stroke: #A80036; stroke-width: 1.0;"/><text fill="#000000" font-family="sans-serif" font-size="13" lengthAdjust="spacingAndGlyphs" textLength="39" x="152" y="563.5684">lernen</text><!--link wach to faul--><path d="M189.0881,520.0911 C196.5855,540.7905 207.2421,570.2118 215.1791,592.125 " fill="none" id="wach-faul" style="stroke: #A80036; stroke-width: 1.0;"/><polygon fill="#A80036" points="216.9308,596.961,217.6266,587.1367,215.228,592.2599,210.1048,589.8613,216.9308,596.961" style="stroke: #A80036; stroke-width: 1.0;"/><text fill="#000000" font-family="sans-serif" font-size="13" lengthAdjust="spacingAndGlyphs" textLength="62" x="206" y="563.5684">fernsehen</text><!--link fleissig to müde--><path d="M129.7622,647.0846 C129.3779,661.281 130.4061,679.1171 136,694 C139.4182,703.0942 144.9114,711.8855 150.8452,719.672 " fill="none" id="fleissig-müde" style="stroke: #A80036; stroke-width: 1.0;"/><polygon fill="#A80036" points="154.1767,723.89,151.7374,714.348,151.0777,719.9662,145.4594,719.3065,154.1767,723.89" style="stroke: #A80036; stroke-width: 1.0;"/><text fill="#000000" font-family="sans-serif" font-size="13" lengthAdjust="spacingAndGlyphs" textLength="39" x="137" y="690.5684">lernen</text><!--link faul to müde--><path d="M216.7143,647.0911 C209.0539,667.7905 198.1657,697.2118 190.0561,719.125 " fill="none" id="faul-müde" style="stroke: #A80036; stroke-width: 1.0;"/><polygon fill="#A80036" points="188.2664,723.961,195.1415,716.9089,190.0018,719.2718,187.6389,714.1322,188.2664,723.961" style="stroke: #A80036; stroke-width: 1.0;"/><text fill="#000000" font-family="sans-serif" font-size="13" lengthAdjust="spacingAndGlyphs" textLength="58" x="206" y="690.5684">gammeln</text><!--link müde to bettfertig--><path d="M149.3703,738.1605 C107.4847,720.7006 36,682.0988 36,622 C36,241 36,241 36,241 C36,207.7798 40.1199,169.8875 43.5316,144.2035 " fill="none" id="müde-bettfertig" style="stroke: #A80036; stroke-width: 1.0;"/><polygon fill="#A80036" points="44.2031,139.2345,39.0339,147.6178,43.5335,144.1895,46.9619,148.6891,44.2031,139.2345" style="stroke: #A80036; stroke-width: 1.0;"/><text fill="#000000" font-family="sans-serif" font-size="13" lengthAdjust="spacingAndGlyphs" textLength="61" x="37" y="436.5684">umziehen</text><!--link bettfertig to schlafend--><path d="M90.0175,114 C127.4314,114 182.1687,114 221.4449,114 " fill="none" id="bettfertig-schlafend" style="stroke: #A80036; stroke-width: 1.0;"/><polygon fill="#A80036" points="226.6387,114,217.6387,110,221.6387,114,217.6387,118,226.6387,114" style="stroke: #A80036; stroke-width: 1.0;"/><text fill="#000000" font-family="sans-serif" font-size="13" lengthAdjust="spacingAndGlyphs" textLength="54" x="131.5" y="107.5684">hinlegen</text><!--link müde to schlafend--><path d="M208.6163,743.8783 C263.1669,732.5614 374,699.9741 374,622 C374,241 374,241 374,241 C374,200.1207 341.3468,165.1789 312.6337,142.3556 " fill="none" id="müde-schlafend" style="stroke: #A80036; stroke-width: 1.0;"/><polygon fill="#A80036" points="308.4303,139.0769,313.0668,147.7661,312.3728,142.152,317.987,141.4581,308.4303,139.0769" style="stroke: #A80036; stroke-width: 1.0;"/><text fill="#000000" font-family="sans-serif" font-size="13" lengthAdjust="spacingAndGlyphs" textLength="54" x="375" y="436.5684">hinlegen</text><!--
@startuml

[*] - -> schlafend
aufgewacht - -> schlafend : snooze
schlafend - -> aufgewacht : aufwecken
aufgewacht - -> geduscht : duschen
aufgewacht - -> wach : frühstücken
geduscht - -> wach : frühstücken
wach - -> fleissig : lernen
wach - -> faul : fernsehen
fleissig - -> müde : lernen
faul - -> müde : gammeln
müde - -> bettfertig : umziehen
bettfertig -> schlafend : hinlegen
müde - -> schlafend : hinlegen


' state geduscht {
'	[*] - -> duschbereit : ausziehen
'	duschbereit - -> nass : duschen
'	nass - -> trocken : abtrocknen
'	trocken - -> [*]
'}

@enduml

PlantUML version 1.2017.16(Sun Sep 03 12:53:37 CEST 2017)
(GPL source distribution)
Java Runtime: Java(TM) SE Runtime Environment
JVM: Java HotSpot(TM) 64-Bit Server VM
Java Version: 1.8.0_144-b01
Operating System: Mac OS X
OS Version: 10.13.1
Default Encoding: UTF-8
Language: en
Country: US
--></g></svg>