<?xml version="1.0" encoding="UTF-8" standalone="no"?><svg xmlns="http://www.w3.org/2000/svg" xmlns:xlink="http://www.w3.org/1999/xlink" contentScriptType="application/ecmascript" contentStyleType="text/css" height="347px" preserveAspectRatio="none" style="width:648px;height:347px;" version="1.1" viewBox="0 0 648 347" width="648px" zoomAndPan="magnify"><defs><filter height="300%" id="f9bskboy78h5g" width="300%" x="-1" y="-1"><feGaussianBlur result="blurOut" stdDeviation="2.0"/><feColorMatrix in="blurOut" result="blurOut2" type="matrix" values="0 0 0 0 0 0 0 0 0 0 0 0 0 0 0 0 0 0 .4 0"/><feOffset dx="4.0" dy="4.0" in="blurOut2" result="blurOut3"/><feBlend in="SourceGraphic" in2="blurOut3" mode="normal"/></filter></defs><g><!--class Automaton--><rect fill="#FEFECE" filter="url(#f9bskboy78h5g)" height="73.9102" id="Automaton" style="stroke: #A80036; stroke-width: 1.5;" width="192" x="225.5" y="8"/><ellipse cx="286.25" cy="24" fill="#ADD1B2" rx="11" ry="11" style="stroke: #A80036; stroke-width: 1.0;"/><path d="M289.2231,29.6431 Q288.6421,29.9419 288.0029,30.0913 Q287.3638,30.2407 286.6582,30.2407 Q284.1514,30.2407 282.8315,28.5889 Q281.5117,26.937 281.5117,23.8159 Q281.5117,20.6865 282.8315,19.0347 Q284.1514,17.3828 286.6582,17.3828 Q287.3638,17.3828 288.0112,17.5322 Q288.6587,17.6816 289.2231,17.9805 L289.2231,20.7031 Q288.5923,20.1221 287.9988,19.8523 Q287.4053,19.5825 286.7744,19.5825 Q285.4297,19.5825 284.7449,20.6492 Q284.0601,21.7158 284.0601,23.8159 Q284.0601,25.9077 284.7449,26.9744 Q285.4297,28.041 286.7744,28.041 Q287.4053,28.041 287.9988,27.7712 Q288.5923,27.5015 289.2231,26.9204 Z "/><text fill="#000000" font-family="sans-serif" font-size="12" lengthAdjust="spacingAndGlyphs" textLength="62" x="306.75" y="28.5352">Automaton</text><line style="stroke: #A80036; stroke-width: 1.5;" x1="226.5" x2="416.5" y1="40" y2="40"/><rect fill="none" height="6" style="stroke: #C82930; stroke-width: 1.0;" width="6" x="233.5" y="48.9775"/><text fill="#000000" font-family="sans-serif" font-size="11" lengthAdjust="spacingAndGlyphs" textLength="72" x="245.5" y="54.6348">current: State</text><line style="stroke: #A80036; stroke-width: 1.5;" x1="226.5" x2="416.5" y1="60.9551" y2="60.9551"/><ellipse cx="236.5" cy="72.9326" fill="#84BE84" rx="3" ry="3" style="stroke: #038048; stroke-width: 1.0;"/><text fill="#000000" font-family="sans-serif" font-size="11" lengthAdjust="spacingAndGlyphs" textLength="166" x="245.5" y="75.5898">accept(input: String[]): boolean</text><!--class State--><rect fill="#FEFECE" filter="url(#f9bskboy78h5g)" height="73.9102" id="State" style="stroke: #A80036; stroke-width: 1.5;" width="187" x="228" y="142"/><ellipse cx="303.25" cy="158" fill="#A9DCDF" rx="11" ry="11" style="stroke: #A80036; stroke-width: 1.0;"/><path d="M303.3633,153.3481 L302.2095,158.4199 L304.5254,158.4199 Z M301.8691,151.1069 L304.8657,151.1069 L308.2109,163.5 L305.7622,163.5 L304.9985,160.437 L301.7197,160.437 L300.9727,163.5 L298.5239,163.5 Z "/><text fill="#000000" font-family="sans-serif" font-size="12" font-style="italic" lengthAdjust="spacingAndGlyphs" textLength="28" x="323.75" y="162.5352">State</text><line style="stroke: #A80036; stroke-width: 1.5;" x1="229" x2="414" y1="174" y2="174"/><line style="stroke: #A80036; stroke-width: 1.5;" x1="229" x2="414" y1="182" y2="182"/><ellipse cx="239" cy="193.9775" fill="#84BE84" rx="3" ry="3" style="stroke: #038048; stroke-width: 1.0;"/><text fill="#000000" font-family="sans-serif" font-size="11" lengthAdjust="spacingAndGlyphs" textLength="141" x="248" y="196.6348">accept(input: String): State</text><polygon fill="#FFFF44" points="239,201.9326,243,205.9326,239,209.9326,235,205.9326" style="stroke: #B38D22; stroke-width: 1.0;"/><text fill="#000000" font-family="sans-serif" font-size="11" lengthAdjust="spacingAndGlyphs" textLength="161" x="248" y="209.5898">successor(input: String): State</text><!--class Schlafend--><rect fill="#FEFECE" filter="url(#f9bskboy78h5g)" height="60.9551" id="Schlafend" style="stroke: #A80036; stroke-width: 1.5;" width="187" x="6" y="276"/><ellipse cx="67.75" cy="292" fill="#ADD1B2" rx="11" ry="11" style="stroke: #A80036; stroke-width: 1.0;"/><path d="M70.7231,297.6431 Q70.1421,297.9419 69.5029,298.0913 Q68.8638,298.2407 68.1582,298.2407 Q65.6514,298.2407 64.3315,296.5889 Q63.0117,294.937 63.0117,291.8159 Q63.0117,288.6865 64.3315,287.0347 Q65.6514,285.3828 68.1582,285.3828 Q68.8638,285.3828 69.5112,285.5322 Q70.1587,285.6816 70.7231,285.9805 L70.7231,288.7031 Q70.0923,288.1221 69.4988,287.8523 Q68.9053,287.5825 68.2744,287.5825 Q66.9297,287.5825 66.2449,288.6492 Q65.5601,289.7158 65.5601,291.8159 Q65.5601,293.9077 66.2449,294.9744 Q66.9297,296.041 68.2744,296.041 Q68.9053,296.041 69.4988,295.7712 Q70.0923,295.5015 70.7231,294.9204 Z "/><text fill="#000000" font-family="sans-serif" font-size="12" lengthAdjust="spacingAndGlyphs" textLength="55" x="88.25" y="296.5352">Schlafend</text><line style="stroke: #A80036; stroke-width: 1.5;" x1="7" x2="192" y1="308" y2="308"/><line style="stroke: #A80036; stroke-width: 1.5;" x1="7" x2="192" y1="316" y2="316"/><polygon fill="#FFFF44" points="17,322.9775,21,326.9775,17,330.9775,13,326.9775" style="stroke: #B38D22; stroke-width: 1.0;"/><text fill="#000000" font-family="sans-serif" font-size="11" lengthAdjust="spacingAndGlyphs" textLength="161" x="26" y="330.6348">successor(input: String): State</text><!--class Aufgewacht--><rect fill="#FEFECE" filter="url(#f9bskboy78h5g)" height="60.9551" id="Aufgewacht" style="stroke: #A80036; stroke-width: 1.5;" width="187" x="228" y="276"/><ellipse cx="284.25" cy="292" fill="#ADD1B2" rx="11" ry="11" style="stroke: #A80036; stroke-width: 1.0;"/><path d="M287.2231,297.6431 Q286.6421,297.9419 286.0029,298.0913 Q285.3638,298.2407 284.6582,298.2407 Q282.1514,298.2407 280.8315,296.5889 Q279.5117,294.937 279.5117,291.8159 Q279.5117,288.6865 280.8315,287.0347 Q282.1514,285.3828 284.6582,285.3828 Q285.3638,285.3828 286.0112,285.5322 Q286.6587,285.6816 287.2231,285.9805 L287.2231,288.7031 Q286.5923,288.1221 285.9988,287.8523 Q285.4053,287.5825 284.7744,287.5825 Q283.4297,287.5825 282.7449,288.6492 Q282.0601,289.7158 282.0601,291.8159 Q282.0601,293.9077 282.7449,294.9744 Q283.4297,296.041 284.7744,296.041 Q285.4053,296.041 285.9988,295.7712 Q286.5923,295.5015 287.2231,294.9204 Z "/><text fill="#000000" font-family="sans-serif" font-size="12" lengthAdjust="spacingAndGlyphs" textLength="66" x="304.75" y="296.5352">Aufgewacht</text><line style="stroke: #A80036; stroke-width: 1.5;" x1="229" x2="414" y1="308" y2="308"/><line style="stroke: #A80036; stroke-width: 1.5;" x1="229" x2="414" y1="316" y2="316"/><polygon fill="#FFFF44" points="239,322.9775,243,326.9775,239,330.9775,235,326.9775" style="stroke: #B38D22; stroke-width: 1.0;"/><text fill="#000000" font-family="sans-serif" font-size="11" lengthAdjust="spacingAndGlyphs" textLength="161" x="248" y="330.6348">successor(input: String): State</text><!--class Geduscht--><rect fill="#FEFECE" filter="url(#f9bskboy78h5g)" height="60.9551" id="Geduscht" style="stroke: #A80036; stroke-width: 1.5;" width="187" x="450" y="276"/><ellipse cx="512.25" cy="292" fill="#ADD1B2" rx="11" ry="11" style="stroke: #A80036; stroke-width: 1.0;"/><path d="M515.2231,297.6431 Q514.6421,297.9419 514.0029,298.0913 Q513.3638,298.2407 512.6582,298.2407 Q510.1514,298.2407 508.8315,296.5889 Q507.5117,294.937 507.5117,291.8159 Q507.5117,288.6865 508.8315,287.0347 Q510.1514,285.3828 512.6582,285.3828 Q513.3638,285.3828 514.0112,285.5322 Q514.6587,285.6816 515.2231,285.9805 L515.2231,288.7031 Q514.5923,288.1221 513.9988,287.8523 Q513.4053,287.5825 512.7744,287.5825 Q511.4297,287.5825 510.7449,288.6492 Q510.0601,289.7158 510.0601,291.8159 Q510.0601,293.9077 510.7449,294.9744 Q511.4297,296.041 512.7744,296.041 Q513.4053,296.041 513.9988,295.7712 Q514.5923,295.5015 515.2231,294.9204 Z "/><text fill="#000000" font-family="sans-serif" font-size="12" lengthAdjust="spacingAndGlyphs" textLength="54" x="532.75" y="296.5352">Geduscht</text><line style="stroke: #A80036; stroke-width: 1.5;" x1="451" x2="636" y1="308" y2="308"/><line style="stroke: #A80036; stroke-width: 1.5;" x1="451" x2="636" y1="316" y2="316"/><polygon fill="#FFFF44" points="461,322.9775,465,326.9775,461,330.9775,457,326.9775" style="stroke: #B38D22; stroke-width: 1.0;"/><text fill="#000000" font-family="sans-serif" font-size="11" lengthAdjust="spacingAndGlyphs" textLength="161" x="470" y="330.6348">successor(input: String): State</text><!--link State to Schlafend--><path d="M239.4424,226.1277 C210.5525,242.7198 178.8505,260.9271 152.9361,275.8104 " fill="none" id="State-Schlafend" style="stroke: #A80036; stroke-width: 1.0;"/><polygon fill="none" points="236.1608,219.9401,256.9902,216.0495,243.1332,232.0803,236.1608,219.9401" style="stroke: #A80036; stroke-width: 1.0;"/><!--link State to Aufgewacht--><path d="M321.5,236.2952 C321.5,249.9403 321.5,263.9839 321.5,275.8909 " fill="none" id="State-Aufgewacht" style="stroke: #A80036; stroke-width: 1.0;"/><polygon fill="none" points="314.5001,236.2211,321.5,216.221,328.5001,236.221,314.5001,236.2211" style="stroke: #A80036; stroke-width: 1.0;"/><!--link State to Geduscht--><path d="M403.5576,226.1277 C432.4475,242.7198 464.1495,260.9271 490.0639,275.8104 " fill="none" id="State-Geduscht" style="stroke: #A80036; stroke-width: 1.0;"/><polygon fill="none" points="399.8668,232.0803,386.0098,216.0495,406.8392,219.9401,399.8668,232.0803" style="stroke: #A80036; stroke-width: 1.0;"/><!--link Automaton to State--><path d="M321.5,95.4577 C321.5,110.8663 321.5,127.5201 321.5,141.8737 " fill="none" id="Automaton-State" style="stroke: #A80036; stroke-width: 1.0;"/><polygon fill="#A80036" points="321.5,82.3265,317.5,88.3265,321.5,94.3265,325.5,88.3265,321.5,82.3265" style="stroke: #A80036; stroke-width: 1.0;"/><!--
@startuml

class Automaton {
	- current: State
	+ accept(input: String[]): boolean
}

abstract class State {
	+ accept(input: String): State
	# successor(input: String): State
}

class Schlafend extends State {
	# successor(input: String): State
}

class Aufgewacht extends State {
	# successor(input: String): State
}

class Geduscht extends State {
	# successor(input: String): State
}

Automaton *- - State

@enduml

PlantUML version 1.2017.16(Sun Sep 03 12:53:37 CEST 2017)
(GPL source distribution)
Java Runtime: Java(TM) SE Runtime Environment
JVM: Java HotSpot(TM) 64-Bit Server VM
Java Version: 1.8.0_144-b01
Operating System: Mac OS X
OS Version: 10.13.1
Default Encoding: UTF-8
Language: en
Country: US
--></g></svg>